<?xml version="1.0" encoding="UTF-8"?>
<svg width="192px" height="124px" viewBox="0 0 192 124" version="1.1" xmlns="http://www.w3.org/2000/svg" xmlns:xlink="http://www.w3.org/1999/xlink">
    <!-- Generator: Sketch 45.1 (43504) - http://www.bohemiancoding.com/sketch -->
    <title>Group 3</title>
    <desc>Created with Sketch.</desc>
    <defs></defs>
    <g id="26th-Iteration" stroke="none" stroke-width="1" fill="none" fill-rule="evenodd">
        <g id="01---Homepage" transform="translate(-81.000000, -652.000000)" fill="#0086BF">
            <g id="Group-3" transform="translate(81.000000, 652.000000)">
                <g id="noun_115_cc" fill-rule="nonzero">
                    <path d="M149.9715,3.45407229 C149.826,1.5253494 148.224,0 146.25,0 L3.75,0 C1.776,0 0.174,1.5253494 0.0285,3.45407229 L0,99.3493976 C0,101.412578 1.6785,103.084337 3.75,103.084337 L146.25,103.084337 C148.3215,103.084337 150,101.412578 150,99.3493976 L149.9715,3.45407229 Z M144,85.1566265 L6,85.1566265 L6,5.97590361 L144,5.97590361 L144,85.1566265 Z" id="Shape"></path>
                    <path d="M99.4371366,120.715624 C93.4371366,119.221648 91.9371366,114.739721 91.9371366,108.763817 L91.9371366,107.269841 L75.4371366,107.269841 L58.9371366,107.269841 L58.9371366,108.763817 C58.9371366,114.739721 57.4371366,119.221648 51.4371366,120.715624 C49.9821366,121.077167 49.9371366,123.703576 51.4371366,123.703576 L75.4371366,123.703576 L99.4371366,123.703576 C100.937137,123.703576 100.892137,121.077167 99.4371366,120.715624 Z" id="Shape"></path>
                </g>
                <path d="M67.817234,57.423128 L58.0672346,47.6731285 L52.912655,52.8277081 L67.8523238,67.7673769 L73.0069034,62.6127973 L72.9220288,62.5279228 L102.78614,32.7633809 L97.6315606,27.6088014 L67.817234,57.423128 Z" id="Combined-Shape"></path>
                <g id="noun_975738_cc" transform="translate(165.000000, 77.000000)" fill-rule="nonzero">
                    <g id="Group" transform="translate(0.000000, 0.318910)">
                        <path d="M15.2500755,0.181095 C12.7735755,0.181095 10.7500755,2.205085 10.7500755,4.681095 L10.7500755,10.22797 C11.0803755,10.20182 11.4129755,10.18112 11.7500755,10.18112 C12.0871755,10.18112 12.4197755,10.20187 12.7500755,10.22797 L12.7500755,4.681095 C12.7500755,3.279105 13.8463755,2.181095 15.2500755,2.181095 C16.6854755,2.181095 17.6998255,3.155905 17.7500755,4.712345 L17.7810755,5.712345 C17.8619255,8.218405 19.8362755,10.181095 22.2810755,10.181095 C24.757575,10.181095 26.749825,8.14361 26.749825,5.681095 C26.754924,5.32045993 26.5654481,4.98501582 26.2539511,4.80321026 C25.9424541,4.62140471 25.5571959,4.62140471 25.2456989,4.80321026 C24.9342019,4.98501582 24.744726,5.32045993 24.749825,5.681095 C24.749825,7.09658 23.6847755,8.181095 22.2810755,8.181095 C20.8456755,8.181095 19.8313255,7.206285 19.7810755,5.649845 L19.7500755,4.649845 C19.6692255,2.143785 17.6948755,0.181095 15.2500755,0.181095 Z M11.7500755,11.181095 C5.3790755,11.181095 0.2500755,16.310095 0.2500755,22.6811 L0.2500755,34.6811 C0.2500755,41.0521 5.3790755,46.1811 11.7500755,46.1811 C18.1210755,46.1811 23.2500755,41.0521 23.2500755,34.6811 L23.2500755,22.6811 C23.2500755,16.310095 18.1210755,11.181095 11.7500755,11.181095 Z M11.7500755,16.181095 C12.5810755,16.181095 13.2500755,16.850095 13.2500755,17.681095 L13.2500755,22.6811 C13.2500755,23.5121 12.5810755,24.1811 11.7500755,24.1811 C10.9190755,24.1811 10.2500755,23.5121 10.2500755,22.6811 L10.2500755,17.681095 C10.2500755,16.850095 10.9190755,16.181095 11.7500755,16.181095 Z" id="Shape"></path>
                    </g>
                </g>
            </g>
        </g>
    </g>
</svg>