<?xml version="1.0" encoding="UTF-8"?>
<svg width="175px" height="129px" viewBox="0 0 175 129" version="1.1" xmlns="http://www.w3.org/2000/svg" xmlns:xlink="http://www.w3.org/1999/xlink">
    <!-- Generator: Sketch 45.1 (43504) - http://www.bohemiancoding.com/sketch -->
    <title>Group 4</title>
    <desc>Created with Sketch.</desc>
    <defs></defs>
    <g id="26th-Iteration" stroke="none" stroke-width="1" fill="none" fill-rule="evenodd">
        <g id="01---Homepage" transform="translate(-425.000000, -646.000000)" fill="#0086BF">
            <g id="Group-4" transform="translate(425.000000, 646.000000)">
                <path d="M15.75,71 L158.25,71 L158.25,124 L158.25,124 C158.25,126.761424 156.011424,129 153.25,129 L20.75,129 C17.9885763,129 15.75,126.761424 15.75,124 L15.75,71 Z M1,64 L174,64 L174,64 C174.552285,64 175,64.4477153 175,65 L175,70 C175,70.5522847 174.552285,71 174,71 L1,71 L1,71 C0.44771525,71 -5.67757835e-14,70.5522847 -5.68434189e-14,70 L-5.68434189e-14,65 L-5.68434189e-14,65 C-5.69110542e-14,64.4477153 0.44771525,64 1,64 L1,64 Z" id="Combined-Shape"></path>
                <g id="Group-2" transform="translate(20.000000, 0.000000)">
                    <path d="M68.0288667,118.84843 C68.0288667,121.693406 70.3569556,124 73.2284444,124 C76.1001778,124 78.4280222,121.693406 78.4280222,118.84843 L78.4280222,86.0441328 L68.0291111,86.0441328 L68.0291111,118.84843 L68.0288667,118.84843" id="Fill-1"></path>
                    <path d="M55.3849778,118.84843 C55.3849778,121.693406 57.7128222,124 60.5845556,124 C63.4560444,124 65.7841333,121.693406 65.7841333,118.84843 L65.7841333,86.0441328 L55.3852222,86.0441328 L55.3852222,118.84843 L55.3849778,118.84843" id="Fill-2"></path>
                    <path d="M55.428,36.5320469 L55.2537111,36.5320469 C49.6280667,36.5320469 45.0281111,41.0667656 45,46.6617812 L45,77.6719531 C45,80.0427266 46.9399111,81.9647266 49.3327778,81.9647266 C51.7256444,81.9647266 53.6655556,80.0427266 53.6655556,77.6719531 L53.6655556,46.6833359 C53.6697111,45.8984062 54.2436667,45.1178359 55.4277556,45.1178359 C55.428,38.0851953 55.428,47.7433906 55.428,36.5320469" id="Fill-3"></path>
                    <path d="M78.6558444,36.5320469 L78.4964667,36.5320469 L78.4964667,45.1180781 C79.6492667,45.1180781 80.2398444,45.8894453 80.2437556,46.6620234 L80.2437556,77.6721953 C80.2437556,80.0429688 82.1836667,81.9649688 84.5765333,81.9649688 C86.9694,81.9649688 88.9093111,80.0429688 88.9093111,77.6721953 L88.9093111,46.6402266 C88.8814444,41.0667656 84.2814889,36.5320469 78.6558444,36.5320469" id="Fill-4"></path>
                    <path d="M60.8558889,46.9448984 L73.0685778,46.9448984 C73.0685778,42.845875 73.0685778,45.7388047 73.0685778,36.5318047 C71.7671556,36.5318047 62.1358,36.5318047 60.8558889,36.5318047 C60.8558889,45.7572109 60.8558889,42.8451484 60.8558889,46.9448984" id="Fill-5"></path>
                    <path d="M59.3097778,12.3072422 L59.3097778,18.9221094 C58.3987333,20.3139609 57.8678,21.9727031 57.8678,23.7552031 C57.8678,28.6687031 61.8881778,32.6524453 66.8479556,32.6524453 C71.8077333,32.6524453 75.8281111,28.6691875 75.8281111,23.7552031 C75.8281111,21.9727031 75.2969333,20.3142031 74.3861333,18.9221094 L74.3861333,12.3072422 C77.2505333,12.3072422 79.5725111,10.0067031 79.5725111,7.16875 C79.5725111,4.33103906 77.2505333,2.03025781 74.3861333,2.03025781 C73.3213333,2.03025781 72.3320667,2.34921875 71.5082889,2.894625 C70.6664222,1.18260156 68.8988444,0 66.8477111,0 C64.7968222,0 63.029,1.18260156 62.1873778,2.89438281 C61.3636,2.34897656 60.3743333,2.03001562 59.3095333,2.03001562 C56.4451333,2.03001562 54.1231556,4.33079687 54.1231556,7.16850781 C54.1234,10.0067031 56.4453778,12.3072422 59.3097778,12.3072422" id="Fill-6"></path>
                    <path d="M127.526207,40.3676 L120.255862,40.3676 C120.916034,40.3676 121.449483,39.8384 121.449483,39.182 C121.449483,38.5304 120.911207,38 120.255862,38 L117.286897,38 C116.631552,38 116.098103,38.5304 116.098103,39.182 C116.098103,39.8384 116.631552,40.3676 117.286897,40.3676 L110.016552,40.3676 C107.998621,40.3676 106.324655,42.1724 106,44.09 L131.547586,44.09 C131.221724,42.1676 129.548966,40.3676 127.526207,40.3676 Z" id="Fill-1"></path>
                    <path d="M130.937069,46.3323723 L130.937069,46 L101,46 L101,47.6677756 L105.266379,47.6677756 L105.266379,57.9985215 C105.266379,60.2068456 107.091207,62 109.344483,62 L126.854138,62 C129.107414,62 130.937069,60.2068456 130.937069,57.9985215 L130.937069,48.0001479 L135.02,48.0001479 L135.02,46.3323723 L130.937069,46.3323723 Z" id="Fill-2"></path>
                    <path d="M112.644957,32.0632 C112.763232,32.218 112.889957,32.368 113.022715,32.5084 L113.352198,32.8372 C113.559784,33.0484 113.752888,33.2548 113.908577,33.442 C113.984612,33.5356 114.049784,33.6244 114.096853,33.7 C114.143922,33.7744 114.182543,33.8308 114.190991,33.9148 C114.205474,34.0048 114.158405,34.126 114.064267,34.2484 C113.974957,34.3696 113.842198,34.4824 113.691336,34.6 C113.871163,34.6696 114.069094,34.6936 114.276681,34.6696 C114.484267,34.642 114.709957,34.5532 114.90306,34.3552 C115.092543,34.1584 115.195129,33.868 115.209612,33.61 C115.228922,33.3532 115.191508,33.118 115.129957,32.9068 C115.011681,32.4856 114.81375,32.1436 114.606163,31.834 C114.497543,31.6792 114.370819,31.5244 114.276681,31.4032 C114.182543,31.2952 114.096853,31.1824 114.022025,31.0744 C113.700991,30.634 113.480129,30.2356 113.394439,29.7664 C113.309957,29.2936 113.404094,28.6936 113.691336,28 C112.946681,28.1548 112.286508,28.7728 112.070474,29.6404 C111.961853,30.0664 111.984784,30.5356 112.098232,30.9484 C112.211681,31.3696 112.414439,31.7404 112.644957,32.0632 Z" id="Fill-3"></path>
                    <path d="M116.646979,32.0632 C116.765255,32.218 116.893186,32.368 117.024737,32.5084 L117.349392,32.8372 C117.561806,33.0484 117.75491,33.2548 117.910599,33.442 C117.986634,33.5356 118.048186,33.6244 118.100082,33.7 C118.147151,33.7744 118.184565,33.8308 118.19422,33.9148 C118.203875,34.0048 118.160427,34.126 118.066289,34.2484 C117.972151,34.3696 117.845427,34.4824 117.689737,34.6 C117.873186,34.6696 118.071117,34.6936 118.278703,34.6696 C118.481461,34.642 118.711979,34.5532 118.901461,34.3552 C119.094565,34.1584 119.198358,33.868 119.211634,33.61 C119.230944,33.3532 119.19353,33.118 119.131979,32.9068 C119.013703,32.4856 118.815772,32.1436 118.604565,31.834 C118.500772,31.6792 118.368013,31.5244 118.278703,31.4032 C118.189392,31.2952 118.100082,31.1824 118.024048,31.0744 C117.703013,30.634 117.477323,30.2356 117.397668,29.7664 C117.307151,29.2984 117.401289,28.6936 117.689737,28 C116.945082,28.1584 116.28491,28.7776 116.067668,29.6404 C115.963875,30.0712 115.983186,30.5404 116.100255,30.9532 C116.213703,31.3696 116.411634,31.7404 116.646979,32.0632 Z" id="Fill-4"></path>
                    <path d="M120.645768,32.0632 C120.762837,32.218 120.890768,32.368 121.02232,32.5084 L121.351802,32.8372 C121.559389,33.0484 121.753699,33.2548 121.908182,33.442 C121.989044,33.5356 122.050596,33.6244 122.097664,33.7 C122.144733,33.7744 122.182147,33.8308 122.19663,33.9148 C122.206285,34.0048 122.158009,34.126 122.063871,34.2484 C121.974561,34.3696 121.843009,34.4824 121.692147,34.6 C121.870768,34.6696 122.068699,34.6936 122.276285,34.6696 C122.483871,34.642 122.710768,34.5532 122.903871,34.3552 C123.092147,34.1584 123.19594,33.868 123.210423,33.61 C123.228527,33.3532 123.191113,33.118 123.129561,32.9068 C123.012492,32.4856 122.818182,32.1436 122.606975,31.834 C122.498354,31.6792 122.370423,31.5244 122.276285,31.4032 C122.186975,31.2952 122.097664,31.1824 122.02163,31.0744 C121.701802,30.634 121.479733,30.2356 121.395251,29.7664 C121.309561,29.2936 121.403699,28.6936 121.692147,28 C120.947492,28.1548 120.282492,28.7728 120.070078,29.6404 C119.961458,30.0664 119.985596,30.5356 120.097837,30.9484 C120.216113,31.3696 120.414044,31.7404 120.645768,32.0632 Z" id="Fill-5"></path>
                    <path d="M18.8008142,43.3021091 C18.8338697,43.0953723 18.8497031,42.8991618 18.8403975,42.7176881 L20.1294253,41.8310916 C20.6302586,41.5805653 21.1391475,41.6145302 21.4077586,41.6611267 C21.4283142,41.6650565 22.1830364,41.8235126 22.5997031,41.5367758 C23.1128975,41.183653 23.2474808,40.4747407 22.8969253,39.957267 C22.697342,39.6601442 22.384842,39.4934074 22.0565086,39.4666004 C22.1520642,39.1496881 22.1141475,38.7933372 21.9155364,38.4983197 C21.566092,37.978039 20.8645642,37.8437232 20.3513697,38.1974074 C20.0649808,38.3941793 19.8934531,38.9123548 19.8402586,39.3990916 C19.8159531,39.5844951 19.6949808,40.2198635 19.1892864,40.6803548 L17.952342,41.5322846 C17.1378975,41.3087056 15.8120642,41.4731969 14.4827586,41.8607056 C15.8434531,42.1178284 17.2003975,42.5581091 18.5312308,43.1764951 L18.8008142,43.3021091 Z" id="Fill-1"></path>
                    <path d="M2.99198276,55.2881281 L13.2469828,55.2881281 C12.9621216,55.0255317 12.7060105,54.7317773 12.4851772,54.404479 C11.5200383,52.9702334 11.3535105,51.2377422 12.0164272,49.5250404 C12.5878161,48.0485492 13.7226772,46.6950053 15.2987883,45.6121983 C15.9932328,45.1347246 16.8347605,44.6971106 17.7364272,44.3260229 C16.5433716,43.857251 15.2733716,43.5201281 13.9414272,43.3743036 C13.005455,43.2717071 12.0875383,43.2173913 11.1994828,43.2173913 C5.49906609,43.2173913 1.03448276,45.4701632 1.03448276,51.2733913 C1.03448276,53.252058 2.01323276,55.2881281 2.99198276,55.2881281 Z" id="Fill-3"></path>
                    <path d="M15.3655772,47.4658938 C12.7776605,49.2444201 11.6291883,51.8941044 12.9919661,53.9188061 C13.6977994,54.9669465 14.8637717,55.4757184 16.1826605,55.4757184 C17.4109939,55.4757184 18.772105,55.0344552 20.0194661,54.1774728 C22.2373828,52.651157 24.4855772,48.9565605 24.3814105,46.8320693 L25.9390494,45.7618938 C26.4186328,45.5223149 26.9790494,45.4653324 27.4830772,45.5552973 C27.9339105,45.6358587 28.5469661,45.6649114 28.9251605,45.4044201 C29.5447439,44.9778938 29.7064105,44.1227359 29.2859939,43.4943851 C29.0429383,43.13635 28.6641883,42.9357886 28.2686328,42.9039289 C28.3832161,42.5202096 28.3397439,42.0908763 28.0977994,41.7322798 C27.6740494,41.1029465 26.8266883,40.9422447 26.207105,41.3689114 C25.860855,41.6068061 25.6541883,42.2345956 25.5884939,42.8216833 C25.560855,43.0437184 25.413355,43.8129815 24.8029383,44.3721394 L23.3066883,45.4006307 C22.9984939,45.315157 22.6290494,45.275578 22.2177994,45.275578 C20.1930772,45.275578 17.1489105,46.2395079 15.3655772,47.4658938 Z" id="Fill-4"></path>
                    <path d="M29.167749,53.320476 L26.7355268,52.8286865 C26.7345546,52.8204058 26.733999,52.811704 26.7328879,52.8028619 C26.6705268,52.2470725 26.3623324,51.4355637 25.771499,50.5217391 C25.6283046,50.795283 25.4894157,51.0397742 25.3662213,51.2448268 C24.3744157,52.901669 23.0842768,54.3478444 21.8262213,55.21409 C21.7926102,55.2371076 21.7584435,55.2585812 21.7241379,55.2815988 L28.9756657,55.2815988 C29.5166379,55.2815988 29.9555268,54.8379497 29.9555268,54.2914233 C29.9555268,53.8194233 29.6256657,53.4131076 29.167749,53.320476 Z" id="Fill-5"></path>
                    <path d="M28.8602375,57.826087 L0.979959739,57.826087 C0.643015295,57.826087 0.329404184,57.9832231 0.150376406,58.2415549 C-0.0292069272,58.4998867 -0.0492069272,58.8234615 0.0971819617,59.0983869 L0.972876406,60.7429109 C1.38190418,61.5114952 2.24134863,62 3.18370974,62 L26.6564875,62 C27.5988486,62 28.4577375,61.5114952 28.8673209,60.7429109 L29.7428764,59.0983869 C29.8888486,58.8234615 29.8694042,58.4998867 29.6898209,58.2415549 C29.5107931,57.9832231 29.197182,57.826087 28.8602375,57.826087 Z" id="Fill-6"></path>
                </g>
            </g>
        </g>
    </g>
</svg>