<svg id="Layer_1" data-name="Layer 1" xmlns="http://www.w3.org/2000/svg" viewBox="0 0 69 90"><defs><style>.cls-1{isolation:isolate;}.cls-2{fill:#0086bf;}</style></defs><title>3</title><g class="cls-1"><path class="cls-2" d="M48.91,89.8a4.32,4.32,0,0,1-1.67-2.31,15.43,15.43,0,0,1-.56-2.69c.09-8.43,0-16.67-.28-25s-.56-16.57-1.11-24.91a9.56,9.56,0,0,0-.09-1.3c-.09-.74-.09-1.48-.19-2.31s-.09-1.57-.09-2.31-.09-1.2-.09-1.39V23a14.38,14.38,0,0,0-.37-1.94,7.26,7.26,0,0,1-.19-2,5.5,5.5,0,0,1,.09-1,6.12,6.12,0,0,0,.09-1,37.34,37.34,0,0,0-.37-5.56,16,16,0,0,1,.19-5.56.83.83,0,0,1,.46.09c.19,0,.28.09.37.28a122.85,122.85,0,0,0,.19,13.06c.28,4.35.65,8.7,1,13.06q.28,3.47.28,6.94a55.45,55.45,0,0,0,.56,6.85l.37-1.39c-.37-4.35-.65-8.61-.93-12.87-.28-4.44-.56-8.8-.83-13.15,0-.19,0-.28.09-.37s.19-.19.46-.37l.19.19a1.28,1.28,0,0,0,.28-.37c.09-.19.19-.28.19-.37V17.3c-.46.19-.83.19-1,0a1.39,1.39,0,0,1-.19-.93,5.42,5.42,0,0,1,.19-1.2q.14-.69,0-.83c0-.09-.09-.19-.19-.28s-.19-.19-.19-.28a.85.85,0,0,1,.09-1,1,1,0,0,0,.09-1h-.19c-.19-.09-.19-.28.09-.56A.48.48,0,0,1,46,11V7.94a6.48,6.48,0,0,0,.19-1.2,4.51,4.51,0,0,1,.19-1.39c.19-.37.28-.65.46-1,.28-.56.56-.56.74,0a14.54,14.54,0,0,0-.46,4.44c.09,1.48.19,3,.37,4.35.09,1.67.09,3.33.19,4.91A43.59,43.59,0,0,0,48,22.94c.19,1.39.28,2.59.46,3.7a11.79,11.79,0,0,1,0,3.61h-.28a2.56,2.56,0,0,1-.09-.83,1.81,1.81,0,0,1-.09-.74v-.56a1.17,1.17,0,0,1-.09-.56A.68.68,0,0,0,47.7,27c-.37.19-.46.46-.37.93s.28.83.37,1a4.25,4.25,0,0,0,.09.93,2,2,0,0,0,.19.93h.19a.34.34,0,0,0,.09.28.34.34,0,0,1,.09.28,1.85,1.85,0,0,1,.19.83,3.19,3.19,0,0,1,.09.83V32a1.66,1.66,0,0,1,.46.65,2.86,2.86,0,0,1,.19.74,2.61,2.61,0,0,1,.09-.74,2.61,2.61,0,0,0,.09-.74v-.19a1.63,1.63,0,0,0-.09-.56,2.59,2.59,0,0,1-.09-.56V25.44q-.28-5.28-.83-10.28a63,63,0,0,1-.28-10.28.68.68,0,0,1,.56-.65,1.74,1.74,0,0,0,.83-.37c.37-.09.65-.46.93-.93a6.38,6.38,0,0,1,1-1.2c.28-.19.46-.28.65-.19a1.43,1.43,0,0,0,.74.19,1,1,0,0,0,.74-.09c.19-.19.37-.28.46-.37a.44.44,0,0,1,.56.09,4.65,4.65,0,0,1,.83,1.11l.46.46c.09.19.09.37.19.56a4,4,0,0,0,.09.46l.56-1.11.56-1.11a1.72,1.72,0,0,1,1-.83A2.28,2.28,0,0,1,59.46.81,4.65,4.65,0,0,1,60.57,1a3.8,3.8,0,0,0,1,.09c.09,0,.19-.09.37-.28s.28-.19.37-.19a2.53,2.53,0,0,1,.37.46c.19.19.28.37.37.37a.34.34,0,0,0,.28-.09.34.34,0,0,1,.28-.09.44.44,0,0,1,.46.46c.37,3.8.65,7.5.83,11.3s.46,7.5.74,11.2a.34.34,0,0,0,.09.28.34.34,0,0,1,.09.28c.19,1.57.37,3.24.46,4.91s.09,3.33.09,4.91a1.23,1.23,0,0,0-.28.93c0,.46.09.65.46.46a12.34,12.34,0,0,1,.28,2.59,24.26,24.26,0,0,1-.09,2.59c-.19.09-.19.19-.19.46v.56l.19-.56L67,42c.09,0,.09.28.19.74a3.45,3.45,0,0,0,.19,1.11c0,.46,0,1.48.09,3.06s.19,3.33.37,5.09c.19,2.13.28,4.44.46,6.94.37,3.8.56,7.5.74,11.3V81.19a1.32,1.32,0,0,1-.56,1.11,1.82,1.82,0,0,0-.83.83c-.37.46-.46.65-.28.74s.19.37.09.93a2.6,2.6,0,0,1-.74.74,5.19,5.19,0,0,1-1.39.93c-.46.28-1,.56-1.39.74a3.87,3.87,0,0,1-.83.28c-.28-1.2-.56-1.76-.93-1.67s-.65.65-.93,1.67a2.61,2.61,0,0,0-.09-.74A2.61,2.61,0,0,1,61,86c-.09,0-.09,0-.09-.09l-.09-.09a4.52,4.52,0,0,0-.74,1.11c-.19.19-.28.37-.37.37s-.19-.09-.37-.19a2.56,2.56,0,0,0-.74-.56c-.56-.28-.93-.19-1,.37a2.22,2.22,0,0,0,0,1.11l-.46-.19a1.25,1.25,0,0,1-.46.83c-.19.19-.46.09-.74-.28a.79.79,0,0,1-1.11.46,2.81,2.81,0,0,0-1.48-.09c-.37.19-.65-.09-.83-.56a4.94,4.94,0,0,0-.37-1,.74.74,0,0,0-.56.83,2.88,2.88,0,0,0,.09,1,.45.45,0,0,1-.65,0,1.94,1.94,0,0,0-.56-.37c-.19-.09-.28-.19-.46-.09s-.28.28-.37.74a2.7,2.7,0,0,0-.19.83C49.46,90.07,49.28,90.07,48.91,89.8Zm-3-77c-.19,0-.19.09-.19.19s.09.19.19.19.19-.09.19-.19S46.13,12.76,45.94,12.76Zm.37,3.06c-.19,0-.19,0-.19.09s.09.09.19.09.09,0,.09-.09S46.41,15.81,46.31,15.81Zm0,4c-.19,0-.19.09-.19.19s.09.19.19.19.19-.09.19-.19A.2.2,0,0,0,46.31,19.8ZM47,16l.19-.19L47,15.63Zm.19,2.78a.4.4,0,0,0-.19-.65v.46Zm0,27.5c-.19,0-.19.09-.19.19s.09.19.19.19.19-.09.19-.19S47.33,46.28,47.15,46.28Zm0-23.43c.09.09.09.37.19.65a.78.78,0,0,0,.19.56V21.65A2.24,2.24,0,0,0,47.15,22.85Zm.37,23.61c-.19,0-.19.09-.19.19s0,.28.19.28.19-.09.19-.19S47.61,46.46,47.52,46.46Zm0,1.67c-.19,0-.19.09-.19.28s.09.28.19.28.19-.09.19-.28S47.61,48.13,47.52,48.13Zm0-22.13a.29.29,0,0,1,.09.19c0,.19,0,.19.09.19a3.22,3.22,0,0,0-.19-1.2Q47.24,25.44,47.52,26Zm.19,23.33c-.19,0-.19.09-.19.28s.09.28.19.28.19-.09.19-.28S47.89,49.33,47.7,49.33Zm0,2.59c-.19,0-.19.09-.19.19s.09.09.19.09.09,0,.09-.09S47.8,51.93,47.7,51.93Zm.19,1.39c-.19,0-.19.09-.19.28s.09.28.19.28.19-.09.19-.28S48.07,53.31,47.89,53.31ZM48.17,32c-.09,0-.09.09-.09.28s0,.28.09.28S48.26,32.3,48.17,32Zm0,1.2c0-.09,0,0-.09.28s-.09.56-.09.83a2.56,2.56,0,0,0,.09.83c0,.28.09.37.09.28s.09-.56.09-1.11S48.17,33.41,48.17,33.22Zm1.39-6.39c-.19,0-.19.09-.19.28s.09.28.19.28.19-.09.19-.28S49.65,26.83,49.56,26.83ZM66.41,39.24c-.19-.09-.19,0-.19.37s.09.37.19.37.09-.19.09-.37A.54.54,0,0,0,66.41,39.24Zm.19.65c-.19,0-.19.09-.19.19s.09.19.19.19.19-.09.19-.19A.2.2,0,0,0,66.59,39.89Zm-.19,3.33h.46l-.19-.56Zm.37.83c-.19,0-.19.09-.19.28s.09.28.19.28.19-.09.19-.28S67,44.06,66.78,44.06Zm.28,2.87c-.09,0-.09.19-.09.46s0,.37.09.37.19-.19.19-.37A.54.54,0,0,0,67.06,46.93Zm.28,3c-.19-.09-.19-.09-.19.09s.09.19.19.19.09,0,.09-.09S67.43,49.89,67.33,49.89Z"/></g></svg>
