<svg id="Layer_1" data-name="Layer 1" xmlns="http://www.w3.org/2000/svg" viewBox="0 0 69 90"><defs><style>.cls-1{isolation:isolate;}.cls-2{fill:#0086bf;}</style></defs><title>1</title><g class="cls-1"><path class="cls-2" d="M22.1,88.1c.2-.1.1-.1-.1-.1a3.44,3.44,0,0,1-.9-.1,4.65,4.65,0,0,1-.9-.3.51.51,0,0,1-.4-.5h-.3c.2,0-.2-.2-1.1-.5a12.21,12.21,0,0,0-2.6-.6,5.9,5.9,0,0,1,.8-.4c.4,0,.2-.3-.3-.6.1-.1.3-.2.7-.5-.1,0-.2,0-.2-.1s-.2,0-.2-.1c-.3-.2-.4-.6-.7-1.3s-.4-1.1-.5-1.3q.15-.15-.3-.3c-.3-.1-.6-.2-1.1-.4a3.58,3.58,0,0,1-1.1-.4c-.3-.1-.4-.3-.4-.4a1.55,1.55,0,0,0,.2-1.5,4.71,4.71,0,0,0-.4-1.7,8.8,8.8,0,0,1-.5-1.5c-.1-.4,0-.7.4-.8a4.45,4.45,0,0,0-.5-.8,5.07,5.07,0,0,0-.6-.7.78.78,0,0,1-.2-.8c.2.1.3,0,.4-.2v-.8a3.75,3.75,0,0,0-.1-1,1.55,1.55,0,0,0-.2-.8c-.2-.5-.3-.9-.2-1a.75.75,0,0,1,.5-.1c.2.1.4.1.5.2s.2-.1.1-.5V68h.4l-.5-3.4,1.1,1.5-.6-1h-.2v.2c.1.2.2.2.4.1a1.21,1.21,0,0,0,.5-.5l.6-.9,2.1-1.6,1.9.8a1.55,1.55,0,0,1,.8,1.1c.2.5.3.9.5,1.3a24.6,24.6,0,0,1,.7,2.9c.2,1,.3,2.1.5,3.2a29.92,29.92,0,0,0,.8,3.2A11.46,11.46,0,0,0,22.5,78c.4.4.5.6.4.5s-.2.1,0,.5c.5.3.9.6,1.2.8a5.58,5.58,0,0,1,.8.5.65.65,0,0,0,.5.2,9.91,9.91,0,0,0,4.5.2,13.36,13.36,0,0,0,3.7-1.1,15.84,15.84,0,0,0,2.9-1.7c.9-.6,1.6-1.1,2.2-1.5a33.76,33.76,0,0,0,3.7-3.8,37,37,0,0,0,3.5-5,23.79,23.79,0,0,0,2.3-5.5,10.67,10.67,0,0,0,.2-5.3,11.6,11.6,0,0,0-1.1-2.7,19.66,19.66,0,0,1-1.2-2.5,6.53,6.53,0,0,1-.7-.8,11.41,11.41,0,0,0-1.1-1.1,11.41,11.41,0,0,1-1.1-1.1c-.3-.4-.6-.6-.6-.8-.4-.3-.8-.6-1.3-1a5.48,5.48,0,0,0-1.5-.8,2.4,2.4,0,0,0-1.5.2c-.4.2-.8.4-1.3.6-.1,0-.1,0-.2-.1a1,1,0,0,0-.4-.1,4.14,4.14,0,0,0-1,.1,13.18,13.18,0,0,0-1.8.5,1.41,1.41,0,0,1-.9-.1,3.55,3.55,0,0,0-.9-.4.64.64,0,0,0-.6,0c-.3.1-.5.1-.8.2a1.27,1.27,0,0,1-.6-.1q-.3-.15,0-.9c-.2-.2-.4-.1-.6.2l-.6.6a5.34,5.34,0,0,0-1.3.3,18,18,0,0,1-1.9.5c-.6.2-1.5.4-2.6.7-.1,0-.2,0-.2-.1s-.1-.1,0-.1l.5-.8c-.1,0-.1,0-.1-.1l-.1-.1h-.6a2.25,2.25,0,0,0-.5-.5,2.25,2.25,0,0,0-.5-.5c-.2-.1-.5,0-.9.1s-.7.3-1.1.5l-1.2.6a1,1,0,0,1-.9.1c-.3-.2-.5-.4-.5-.6a2.77,2.77,0,0,1,.1-.9,2.77,2.77,0,0,0-.1-.9,1,1,0,0,0-.8-.6,24.3,24.3,0,0,1,4.7-3.9,47.2,47.2,0,0,0,5-3.5,10,10,0,0,0,2-2.5A6.11,6.11,0,0,1,29.7,32c.9-1.4,1.9-2.9,2.8-4.5s1.8-3.2,2.6-4.9a26.76,26.76,0,0,0,1.8-5.2,23.8,23.8,0,0,0,.5-5.3.76.76,0,0,1-.8-.7,25.77,25.77,0,0,1-4.2,1.1,6.24,6.24,0,0,1-4.2-.6c-.3-.1-.6.1-1,.4s-.6.3-.9-.2a1.63,1.63,0,0,0,.3-.6,1.63,1.63,0,0,1,.3-.6v-.4a2.65,2.65,0,0,1-1.1.6c-.5.2-.9.4-1.1.5a4.88,4.88,0,0,1-.7.3,3.93,3.93,0,0,1-.6.2,2.81,2.81,0,0,1-1.1.1,8,8,0,0,1-1.1-.1c-.1.1-.3.2-.5.4s-.5.3-.5.4c-.2.2-.4.1-.5-.2a.45.45,0,0,1,.2-.6c-.2-.2-.5-.1-.6.3s-.4.5-.6.3v-.2a.37.37,0,0,1,.1-.3.37.37,0,0,0,.1-.3v-.2l-2.2,1.4L14.4,13c-.4.2-.6.2-.8-.2a3.22,3.22,0,0,1-.1-.8,10.55,10.55,0,0,1,3.8-3.4,23.18,23.18,0,0,0,4.4-3.1L25.1,4H23.2a1.79,1.79,0,0,1,.7-.5,6.89,6.89,0,0,0,.8-.3c.4-.1,1.1-.2,2.1-.4s1.7-.3,2-.4L29,2h-.7l.2-.4A35,35,0,0,0,35,1.3a35.06,35.06,0,0,1,6.5-.2,1.38,1.38,0,0,1,.4-.3,1.38,1.38,0,0,0,.4-.3,2.76,2.76,0,0,1,1.4.2c.7.2,1.2.3,1.4.4h.5c.8.1,1.7.2,2.8.4s2.2.5,3.3.8a13.79,13.79,0,0,1,3,1.4,6.3,6.3,0,0,1,2.1,2.2,3.93,3.93,0,0,0,.2.6,2.5,2.5,0,0,1,.4.8,2.89,2.89,0,0,1,.6,1c.3.5.5.8.6,1v.6h.2c.1,0,.1.3.2.8s.1.9.1,1.2a17.19,17.19,0,0,1-.4,5,31.16,31.16,0,0,1-1.4,5,28.64,28.64,0,0,1-2.2,4.7c-.9,1.5-1.6,3-2.4,4.4a5.92,5.92,0,0,0-.4.6c-.2.4-.4.7-.6,1.1a6,6,0,0,0-.6,1.1l-.3.6c-.1,0-.1.1-.2.2s-.1.2-.2.2a6,6,0,0,1,1.8.6,7.58,7.58,0,0,0,1.6.9,15.12,15.12,0,0,0,1.9.8,15.12,15.12,0,0,1,1.9.8c.5.2.6.3.5.5a.8.8,0,0,0,.1.8c0,.2.2.4.6.7s.9.7,1.4,1.1a14.31,14.31,0,0,0,1.5,1.1,4.64,4.64,0,0,1,1,1,3.55,3.55,0,0,1,.4.9,2,2,0,0,0,.5.9c.1.2.3.4.5.8a8,8,0,0,1,.6.8A11,11,0,0,1,66.9,50a31.21,31.21,0,0,1,1.5,4.3,23.16,23.16,0,0,1,.6,4.6,15.91,15.91,0,0,1-.4,4,5.29,5.29,0,0,1-1.3,2.3,10.71,10.71,0,0,0-1.5,2.2,35.2,35.2,0,0,1-3.2,5.3,28.05,28.05,0,0,1-4.2,4.5,2.65,2.65,0,0,0-.5.6,1,1,0,0,1-.5.6l-.2-.4c-.3.2-.4.3-.3.5s.1.4-.2.5a2.19,2.19,0,0,1-.5.3,4.2,4.2,0,0,0-.5.2L54.1,81c-.3.2-.9.6-1.8,1.1l-2.7,1.5c-.9.5-1.8,1.1-2.7,1.6s-1.4.8-1.8,1a28.22,28.22,0,0,1-8.4,2.6,16,16,0,0,0-1.7.1,20.34,20.34,0,0,1-2.2.1,8.65,8.65,0,0,0-2.6.8,4.55,4.55,0,0,1-2.8.5l-4.1-1.9H21.8Zm-11-16.3a1.63,1.63,0,0,1,.2-1.5,1.49,1.49,0,0,1,0,1.8l-.1-.1C11.2,71.9,11.1,71.9,11.1,71.8Zm.5.6c-.1-.1-.1-.1-.1.1s0,.2.1.2Q12.05,72.4,11.6,72.4Zm7.4.7c-.1-.1-.1-.1-.1.1s0,.2.1.2.1,0,.1-.1A.35.35,0,0,0,19,73.1Zm1.3,14.4c.1-.1.1-.1-.1-.1s-.2,0-.2.1,0,.2.1.2S20.3,87.7,20.3,87.5ZM37.7,26.9l.4-.6c-.1,0-.1,0-.2.1s-.1.1-.2.1Zm.8-1.8a.76.76,0,0,1-.1.4.76.76,0,0,0-.1.4,6.31,6.31,0,0,0,1.5-2.1,6,6,0,0,0,.8-2.5l-.3.3Zm2.4-4.6c-.1,0-.1,0-.1.1s0,.1.1.1a.37.37,0,0,1,.1-.3.6.6,0,0,0,.1-.4c-.1,0-.1.1-.1.2A.37.37,0,0,1,40.9,20.5Zm.4,65.4c0-.1-.1-.1-.2-.1s-.1,0-.1.1,0,.1.1.1S41.3,86,41.3,85.9Zm4.1-55.4c.2.2.3.1.4-.1a1.27,1.27,0,0,0,.1-.6.47.47,0,0,0-.5.5Zm.8-1.3.4-.2h-.4Zm.5-1c-.2,0-.2.1-.2.2s.1.2.2.2.2-.1.2-.2S46.9,28.2,46.7,28.2Zm.3-.3a4,4,0,0,0,1.3-1.5,2.72,2.72,0,0,0,.5-2l-.2.2a5.58,5.58,0,0,0-.5.8c-.2.3-.3.6-.5.9a10.91,10.91,0,0,0-.6,1.1Zm1.7,23c-.1,0-.1.1-.1.2s0,.2.1.2C48.8,51.1,48.8,51,48.7,50.9Zm.6-27.8h.2v-.2h-.2Zm.5-1.5c-.2,0-.2.1-.2.2s.1.2.2.2.2-.1.2-.2S49.9,21.6,49.8,21.6Zm.5-.5.2-.6c-.1-.1-.2,0-.5.2Zm.5-1.9c-.2,0-.2.1-.2.3s.1.3.2.3.2-.1.2-.3S51,19.2,50.8,19.2Zm.3-.2a1.05,1.05,0,0,0,.5-.9,3.42,3.42,0,0,0-.1-1.1,1.14,1.14,0,0,0-.3.8,2.92,2.92,0,0,1-.2.9V19Zm8.1,51.5a1.42,1.42,0,0,1-.2.6c.1.1.4-.2,1-.8a18,18,0,0,0,1.8-2A18.82,18.82,0,0,0,63.4,66c.5-.8.7-1.3.6-1.6a17.55,17.55,0,0,1-2.4,3A11.29,11.29,0,0,0,59.2,70.5Zm1.6-30.3a3.72,3.72,0,0,1-1.3-1.1c.2-.1.5.1,1.1.4s.8.6.6.9c-.1,0-.2,0-.2-.1A.31.31,0,0,1,60.8,40.2Zm3,21.2c-.2,0-.2.1-.2.2s.1.2.2.2.2-.1.2-.2S64,61.4,63.8,61.4Z"/></g></svg>
