<svg id="Layer_1" preserveAspectRatio="none" data-name="Layer 1" xmlns="http://www.w3.org/2000/svg" viewBox="0 0 1024 133"><defs><style>.cls-1{fill:#87caef;}.cls-2{fill:#fff;}</style></defs><title>triangle-messy</title><g id="_26th-Iteration" data-name="26th-Iteration"><g id="_01---Homepage" data-name="01---Homepage"><g id="Group-Copy"><g id="Page-1"><path id="Fill-37" class="cls-1" d="M1021.89,4.32a17.53,17.53,0,0,1-2.46.32c-1.59-.19,1.8-.54,3.12-.82-.36.19-.61.36-.67.51m-7.37.83c4.22-.49,5.2-.41,7.56-.57a1.09,1.09,0,0,0,.21.08l.42-.13,1.68-.15c-.52-.06.43-.37,0-.45.65-.3.74-.56-1-.53l-.46.22a22.27,22.27,0,0,0-2.35.1c1.09.37-8.15,1.09-6.07,1.43"/></g><g id="Page-1-2" data-name="Page-1"><path id="Fill-62" class="cls-1" d="M1007.51,14c1.49.26,5.79-.45,11.31-.84-.19-.35-6.72.42-11.31.84"/><path id="Fill-168" class="cls-1" d="M1023.83,12.91c1.28,0,5.32-.46,7.53-.61-.17-.31-6.65.07-7.53.61"/></g></g></g></g><path class="cls-2" d="M332,75.65c-1.36.37-3,.74-4.87,1.13,11.45-1.32,5.66-.92,11-1.86C334.62,75.27,335.26,75.55,332,75.65Z"/><path class="cls-2" d="M289,80.44c4.3-.7,2,0,3.72,0,7-.71,6.82-.82,4.86-1,1.26.15-9,1.06-6.18.38C286.67,80.06,286.53,80.65,289,80.44Z"/><path class="cls-2" d="M373.73,70.91a55.7,55.7,0,0,0,9.83-1c-1.49.14-.77,0,0-.18l-6.16.65C380.39,70.56,374.67,70.65,373.73,70.91Z"/><path class="cls-2" d="M379.84,69.92c3-.28,2.65-.44,6.14-.73-.81-.3-3.43-.28-6.24-.23C381.23,69.31,380.17,69.35,379.84,69.92Z"/><path class="cls-2" d="M512.58,55.44c3.81-.51,9.38-.65,9.83-1.12A86.1,86.1,0,0,0,512.58,55.44Z"/><path class="cls-2" d="M406.89,67.16c3-.52-1.85,0-1.27-.31-7.25.95-10.73,1.76-17.12,2.68,7.45-.89,10.42-1.64,17.14-2.51C405.86,67.11,405.46,67.3,406.89,67.16Z"/><path class="cls-2" d="M291.55,81.57c-.29-.5-3.18,0-6.21,0C285.92,81.86,289.83,81.53,291.55,81.57Z"/><path class="cls-2" d="M520.16,56.58c1.83-.21,4.54-.45,4.91-.6-1.46.11-2.79.2-3.7.21a10.72,10.72,0,0,1,1.2-.3C517.23,56.46,520.35,56.27,520.16,56.58Z"/><path class="cls-2" d="M291.57,81.75c-2.86.18-4.12.08-9.86.77C283.06,82.75,288.64,82.16,291.57,81.75Z"/><path class="cls-2" d="M763.55,30.38c4-.6-7.34.1-5,.08C762.32,30.07,759.82,30.78,763.55,30.38Z"/><path class="cls-2" d="M858.3,21c2-.55-3.25-.87,1.06-1.61-5.36.63-2.66-.18-6.19.12C854.47,20.12,853,21.18,858.3,21Z"/><path class="cls-2" d="M703.19,35.67c-1.09-.13-.79-.51-5-.09C698.22,35.9,698.82,36.12,703.19,35.67Z"/><path class="cls-2" d="M548.36,52.91c-2.44.26-1.57-.07-4.92.34,0,.13.6.13,1.25.14a36,36,0,0,0-3.68.47C544.54,53.51,547.25,53.18,548.36,52.91Z"/><path class="cls-2" d="M543.86,57.26a69.06,69.06,0,0,0-7.41.51c1,.14-1.72.41-1.19.57C538.48,58,542,57.59,543.86,57.26Z"/><path class="cls-2" d="M548.19,51.34c-1.55.44-6.91.5-7.35.95,2.22-.24,7.68-.61,11.07-1.16A32.12,32.12,0,0,1,548.19,51.34Z"/><path class="cls-2" d="M593.85,48c-.07-.11.55-.25,1.21-.39-1.7.18-2.7.24-3.69.3.39.16-3.56.47-3.66.65C589.13,48.52,591,48.37,593.85,48Z"/><path class="cls-2" d="M527.35,54.06c-.41-.19,6.9-.64,4.9-.78-3.79.46-2.36.31-6.15.65l0,.17C526.19,54.15,526.31,54.19,527.35,54.06Z"/><path class="cls-2" d="M767.3,30.6c6.55-.69,10.81-1.3,14.73-1.9C776.59,29.18,768.6,30,767.3,30.6Z"/><path class="cls-2" d="M570.69,52.33c-4.76.58-5.12.19-8.62.82C560.58,53.59,570.4,52.48,570.69,52.33Z"/><path class="cls-2" d="M275.35,81.16c-.11-.14.25-.3,1.18-.48-3,.28-2.64.44-6.13.73C270.06,81.69,272.13,81.53,275.35,81.16Z"/><path class="cls-2" d="M1185.73-10A108.13,108.13,0,0,1,1172.2-8.6c3.34-.29-.93-.32,2.43-.61.15.09.38.17,2.47-.08.68-.13,5-.79,1.2-.48-.12.12-.35.24-2.45.43,2.11-.57-.16-.47-.09-.87-6.72,1-.88-.5-7.42.25-1.94.63-6.11.81-8.62.91-.08.32-.51.66-3.61,1.09-1.82.06-1.87-.38-.07-.7-3,.24-7.33.44-9.85.86.14.32,1.41.1.06.52-4.36.16-4.39.66-6.11,1-2.29.12-8.59.73-5,.08-6.57.75-8.86.74-9.89.51,2.69-.27,3.89-.48,3.66-.65-6.32.46-14.28,1.19-18.5,1.5.11-.15,3.15-.4,2.43-.52a50.57,50.57,0,0,0-8.57,1.17c-3.4.07-12.61,1.17-13.58.81-3.82.65-6.36.79-11.07,1.16-.84.28-.61.45-.75.59-1,.12-1.83.23-2.62.36-5.14.46-8.81.67-12.57,1.09,1.49-.17,2.9-.33,2.45-.44a36,36,0,0,1-4.95.35c.44.48-7.24,1.24-9.76,1.82-2.87.25-6.17.58-9.3.88.88-.17,1.38-.28-1.43,0a1.1,1.1,0,0,1-.47.22l-3.57.32c1,.22-7.57,1-8.61,1-2.21.42-1.06.59-2.4.78-4,.3-9.4,1.07-5,.17-6.22.78-7,1.22-12.26,1.64,2.32.07-2.29,1.12-4.81,1.65-2.19,0-3.77.64-4.91.52,1.65-.26,2.43-.49,3.65-.74-1.16,0-4.52.45-3.71.13,4-.34,1.64-.46,4.88-.78.54.16-2.22.42-1.18.56,6.81-.84,2.69-1.32,9.72-2.17-3.56.23-4.52.54-7.36.86,2.89-.28-.08.34-1.2.48-1.51-.1-10.77.74-8.69.12,3.69-.48,2.19,0,2.5.09,7.82-1,6.19-1.61,17.13-2.68-2.93-.17,2.33-.52,4.86-1a65,65,0,0,0-7.39.69c-.65-.21,2.85-.66-1.27-.31-.37.33-1.22.68-3.63,1.09-4.85,0-9,1.8-15.94,2.12,1.9-.47,6.54-1,8.55-1.52-.8-.1-5.76.55-6.18.38,5.84-.73,18.86-2.13,3.67-.56-1.7.18-2.7.24-3.69.3.36.16-.27.36-2.43.61-4.83.56-6.36.07-9.87.69,1.81-.19,6.2-.41,2.49.09a68.19,68.19,0,0,0-9.82,1c.43.1.3.32-.4.6-2-.08-4.53-.09-5.44-.28a15.39,15.39,0,0,0-4,.66c-1.44,0-1.38-.31-2.52,0,.11.07.12.14.06.22-.57-.12-1.58-.17-1-.5-3.55.33-3.87.1-8.63.64-2.56.5-2.55.9-4.82,1.39s-3.46.32-6.21.56c-.25-.28-1.78-.36-4.06-.25.62.63-1,.94-2.72,1.55l-.48.08c-12.53,1.43-19,2.11-29.47,3.45,1.38.48-4.43,1.2-6,1.78-3.27.34-7,.77-8.62.82a42.82,42.82,0,0,0-7,1.75c-.74.09-1.37.19-1.81.27a7.93,7.93,0,0,1,1.08,0c-.85.25-1.82.5-3.13.77-.09-.59-4.82-.26-2.59-1.05a111.75,111.75,0,0,0-14.76,1.46c1.89.09,1.49.6-4.84,1.21,1-.79-4,0-7.46.08-.09.15.2.28-2.44.52-.17-.48-3.34-.07-7.4.51-1.23-.08-.46-.51-5,0a26.21,26.21,0,0,1-6.15.56c-2.19.52-4.5.5-9.82,1.12.43-.4-3.4,0-5-.09-1.78.32-1.62.58-3.64.91-.31-.41-2.31.31-4.89.6.33,0-.81-.45-3.7.48.26-.26,1.56-1.18-1.33-.92-4.29.52.58.38-3.61,1a25,25,0,0,0-6.14.91c-.8-.33,4.23-2.21-1.37-1.27,3-1.37,3.53-2.14-6.41-1.88-6.64,1.34-13.52,3.35-1,1.79,5-.27.48,1.5,7.49.36-1.35.42-.09.21.05.52-1.65.2-2.33.37-4.91.6-.73.29,1.61.47-1.16.83-2.64-.05,2.64-1-2.56-.61l.06.56c-9.27,1.07-24.75,3.09-25,2.18.61-.32,6.38-1.26,3.59-1.17-3.31.55-2.61,1-6,1.52-3.24.25-4.17.09-7.41.34-2.51.79-9,1.71-12.19,2.51-2.73.1-8.44.73-7.43.17,4.36-.44,9.38-1.36,6.08-1.26.4.19-2.53.49-4.88.78.08-.16-.3-.24-1.27-.22,9.21-1.2,22.35-2.28,25.76-3.41-11,1.22-28.4,3.69-29.57,2.58-4.13.46-3.54.76-7.34,1.21-.86.31,5.45-.21,1.29.39a32.52,32.52,0,0,0-4.94.34c4.52-.31.3.38,3.75.22-4.63.67,1.31-.34-4.92.52a47.46,47.46,0,0,1-5-.36c-1.26.55-5.7.29-8.65.56-2.15.76-3.62.36-8.6.9-1.85.62,4.53-.21,6.2-.21-2.3.32-1.81.54-3,.82a19.76,19.76,0,0,0-5.28-.07c.75-.07,1.45-.14,1.23,0a10.06,10.06,0,0,0-1.61.33c-2.13-.14-3.59-.4-6.2-.45.69.15.86.41.06.61a21.81,21.81,0,0,0-4.95.26c2.33-.24-.73.42-2.43.61l-6.14.64c.18-.14-.69-.1-1.09-.14h0c-.13,0-.2,0-.16-.08l-.26,0-1.88-.18a5.91,5.91,0,0,1,.72.31c-4,.45-2.13.29-3.52.27.59.18-6.72.64-6.12.82,1.82,0,3.87-.58,3.7-.21-5.09.49-5.78.2-13.45,1.15-.21-1.09-.42-2.25-3.75-2.63-3,1.19-2,1.85-.23,2.37-3.77.13-9.51.61-13.49.77,3.5,0-2.08.61-6.1.91-.41.54-9.56,1.37-12.23,2,2.79,0,8.09-1,8.62-.73-7.77,1.4-18.64,2.91-28.12,4.37,2.66-.64-10.38,1.12-12.28,1.47,1.45,0,5.12-.43,5-.17-1.8.5-9.22,1.19-13.5,1.77.69.29,5.91-.38,0,.43,3.57-.25,6.23-.89,7.39-.78-1.91.42-4.55.86-3.6,1.17,6-.26,14.58-1.31,20.9-2.2,1.48.14,7.53-.41,2.52.44-3.75.46-4.49.38-7.38.69.14.27,5.59-.4,3.74.22-1.23.13-1.45.22-2.44.34-2.19.28-5.15.28-6.17.65,2.91-.28.81.31-1.18.48,2-.55-7.18.42-11.09,1-2.35.86,8.2-.57,6.24.22-4.79.51-9,1-9.8,1.38,3.57-.12,2.89-.54,6.11-.91,3.17-.18,4.3-.55,6.15-.56-2.44.52-6.18,1.08-8.52,1.6,16.41-1.09-12.62,2-19.58,3,1.44-.14,1.36,0,1.26.13,3.17-.16,5.65-.68,7.39-.69-2.95.42-6.53.86-8.58,1.25-.61-.06-1.28-.11-2-.16L547,59.45c3.67-.51,3.72-.9,9.31-1.47-.27.16-2,.36-2.42.52,11.14-.84,15.32-2.55,2.39-.87-.07-.52-9.17,1-13.55,1.16-.09.06-.09.12-.06.17-8.51.57-5.42-.92-12.06-.69-3.59.53-.48.83-4.83,1.39-3.57,0-2.71-.88-7.54-.71-3.49.29-3.16.46-6.14.73,1.22-.48-2-.18-3.74-.14,1.45-.19,2.77-.38,3.67-.56l-.82,0c5.18-.57,9-1.08,11.48-1.56-4.4.53-10.42,1.12-13.31,1.6-2.33,0-4.67.09-8.49.4a5.46,5.46,0,0,0,.9-.27c3.85-.47,8-1,12.23-1.44-2.11.18.24-.14,0-.26-4.35.51-8.34,1-12.2,1.52a40.13,40.13,0,0,0-5.91.18c1,.23-1.34.57-4.87,1-1.09-.31-4.33-.24-3.81-.83-3.19.58-6.58,1.32-9.41,1.92-3.74.47-8.48,1.18-11.75,1.3,3.36-.59-1.49,0-1.28-.31,8.56-1.26,23.92-3.16,30.63-4.19a18.47,18.47,0,0,1-2.47.17c7.45-.64,13.81-1.39,17.19-2.25q-2.74.18-2.52-.18c-20,2-48.23,5.49-61.45,6.63-.76.45-5.58.7-7.37,1,.48.08.32.52-2.38.87-1.45,0-1.46-.07,0-.35-4.57.45-2.24.66-6.11,1.08-2.55.22-4,.23-6.18.38-.15.61-5,.87-8.53,1.52,5-.57-.47.24,1.28.31-7.27.8-11.63,1.5-14.69,2.16-3.39.39-1.2-.2-3.74,0-2.2.64-2,.48-7.35.95-2.78.39-4.45.74-4.86,1,.41.22,3.83-.09,2.53.44-3.59.55-6,.72-8.59,1.08-.37.21-.87.83-3.59,1.26.72-.25-.78-.11-2.6.09.84-.41,1.8-.84.36-.94-4.3.64-4.6,1.15-8.51,1.78,3.39-1-6.61-.15-2.61-1.14-2.55.22-4,.23-6.16.38a32.9,32.9,0,0,1-5.17,1.46c-.88.07-1.53.11-2.17.14-.75-.17.48-.51-3.7-.18-4.64.8-3.44,1.4-8.48,2.21-3.06,0-.9-.68,2.37-1.13-4.88.26-4.66.16-8.68.3,1,.26-7.85.71-3.71.12-6.09.82-9.28,1.54-13.43,2.29-2.48.07,2.56-1.22-1.37-1.09-4,.87.14,1.3-8.44,2.47,1.48-.65-2.68-.29-5-.27-5.76,1.18-4.68,2-11.91,3.33l-.54,0a.53.53,0,0,0-.21.1c-2.23.39-5.19.81-9.23,1.3l.08.79c.53,0,1.17-.05,1.85-.1-.58.31.56.49,1.67.68-1.3.18-2.47.34-2.68.43-1,.11-1.78.22-2.38.33l2.59-.26h.3l.82-.11.94-.08a5.72,5.72,0,0,1,1.48,0c-1.26.12-2.48.22-3.6.3.88.15-2.57.44-3.72.66-1.76,0-6,.52-5.07.09,2.22-.25,6.29-.57,5-.7a79.08,79.08,0,0,0-7.88,1.16c-1.06,0-3.1.23-4.33.29-.56.27.68.21,2.46.06a12.26,12.26,0,0,1-4,.38l-1.15.12c-.44,0-1,0-1.87.07.23-.12.47-.22.71-.33,1.89-.22,3.72-.43,4.78-.48a1.67,1.67,0,0,0-.5-.07c3.39-.42,3-.51,8.13-.92-.92-.14,2.43-.43,2.44-.61-5,.55-8.52,1.06-11.21,1.54-.76,0-1.82.15-3,.28l.65-.25c2.12-.26,3.88-.52,3.72-.7l-2.81.36a7.73,7.73,0,0,0,1.89-.91c-1.84.3-3,.57-6.12.91,1,.2.06.56-1.54,1-.52-.16-1.17-.28,0-.69-3.88.55-2.92.93-6.15,1.46.82-.17,1.85-.34-.48-.13a13.13,13.13,0,0,1-2.33.16c2.08-.57,5.09-1.22,8.91-2-.75-.08-1-.23-.78-.42,1.1.1,3.41.1,3.58.1s0-.17,1.2-.3c1.7-.18,2.72-.24,3.72-.3.7-.55-9.66.73-6.22-.05l-1.51.16A94.62,94.62,0,0,1,267,84.77c-.48-.44,1.53-1.56,7.58-2.52-3.3.48-5.89.4-2.88-.09a10.19,10.19,0,0,0,2.45-.26c-3.2.24-8.24.81-9.86.77-.92-.14,2.43-.43,2.43-.61A51.81,51.81,0,0,0,257,84c-3.42.25-2.51-.21-1.31-.57-3.93.49-3.82.26-6.17.47-.85.35-.28.65-3.61,1.09-1.63.08-4.54.39-6.17.47-1.83.47-3.9.95-6.07,1.43-3.66.05-5,.57-8.6,1.08-7.81.5-7-.54-19.8.85-4.14.67-9.14,1.42-16,1.94-4.57.77-4.51,1.38-9.72,2.17,1.25-.65-9.9.77-5-.27-4.37.45-5,.23-5-.09-4.82.88-11.91,1.52-19.13,2.32a.56.56,0,0,0-.22-.67c-4.83.65-.47-.33-3.71,0-1.14.54-.18.78.35,1-2.72.33-5.41.69-8,1.1-4.6.22-.21-.53-1.31-.57a70.3,70.3,0,0,1-8.6,1c.44.26,1.85.25,1.29.39-7.07.42-13.85.8-24.68,1.89,1.66,0-4.83.78-1.19.48,1.77-.36,5.64-.35,8.64-.64-1.29.54-9,1.3-11,1.86-7.47.56-22.79,2.72-24.66,2-3.06.31-3.78.54-6.12.82-.22-.08.18-.27-1.27-.13a21.81,21.81,0,0,1-3.67.56c-2.17-.1-10.5.79-18.82,1.66-1-.07-2.05-.13-1.31-.36-2.08.45-4,.37-6.63.78.53,0,.12.2-.71.45l-3.09.28c.32-.47,0-.92,1.25-1.43-7.05.88-3.63.92-8.52,1.78-1.66.12-2.33.06-2.5-.09-6.76.68-8.36,1.37-13.49,1.86a5.81,5.81,0,0,0-.74.31l-.83.06a9.77,9.77,0,0,0-1.48.47l-.59.08c1-.45-2.09-.16-3.73-.14-5.37.94-4.39,1.46-6.87,2.14-.9.2-1.83.39-2.91.59l-1.11.17c-.57-.11,1.6-.7-2.51-.18.64.09.29.34-.44.66l-1.08.15,0-.35c-8.7.85-6.06,1.31-11,2,1.87-.44.12-.34-3.13,0a1.3,1.3,0,0,0-.28-.44l-1.25.12c3.8-.63,9.36-1.2,9.45-1.4a10.27,10.27,0,0,0,2.47-.26,80.37,80.37,0,0,0-9.84.95c.26-.19-1.4,0-1.28-.22-5.4.59-3.69.94-6.06,1.43a22.42,22.42,0,0,1,2.36-.19c-.7.26-.08.45,0,.67-1.31.29-2.8.6-1.46.61-.42.08-1,.18-1.63.28-1.81,0,.08-.67-3.76-.31-.43.74-8.38,1.33-11,1.77a16.22,16.22,0,0,1,2.48,0c-4.5.5-3.49.82-8.55,1.34-.2-.08.19-.27-1.25-.13-1.77.32-1.75.76-4.89.87.88.58.52.91-4.78,1.82-15.62,1.27-2.28-1.69-11.35-1.54-.72.31,1.64.53-1.15.91l-2.44.26c-.65-.53.49-1.12,1.05-1.7-7.52.81-1.18-.36-6.22-.05a82.52,82.52,0,0,1-8.6,1.08c-6,1.34,1.29,1.31,1.43,1.7.19-.15-.47-.28,1.2-.48a36.67,36.67,0,0,1,3.69-.3c-8.09,1.65-9.59,3.07-14.43,4.6,6.35-.6,5-1,3.61-1.09,6.69-1.28,3.75-2.23,13.3-3.6-1.5.74,1.3.75-1.07,1.7,8.79.07-16.06,2.77-7.16,2.87-2.29.52-5.69.54-7.36,1,4-.32-3.24.91,1.31.57-.06-.29,1.65-.64,3.63-1,1.95.09,1.31.61-1.13,1.09-4.67.62-.29-.36-4.94.26-.07.77-1,1.31.16,1.57,5-.86,1-.89,7.26-1.82-1,.56-1.68,1.8-2.24,2.26a14.57,14.57,0,0,1,2.44-.34,2.91,2.91,0,0,0-.62.18l-3.49.39c.28-.16.33-.3-.83-.32l-3.62.81c-5.22.57-10.32,1.08-14.85,1.43a61.66,61.66,0,0,1-7.63,1.05A136.5,136.5,0,0,1-107,130.23c-6.34-.28,4.37-2.2,3.41-3-4.91,1.91-12.56,3.86-18.08,5.34,1.64-2.27-1.91-3.25.63-5.71,5.9-.67,3.68-1.06,6-1.61-4.85.37-.37.42-3.65.74a9.29,9.29,0,0,0-3.74-.14c-3.68.67,1,.57-3.6,1.17-.79-.66,5-2.22-3.91-1.62-1.26.82-4.19,1.79-1.06,1.79-2.19.06-3.11.4-7.37.77-1.18.77,4.11.4,2.61,1.22l4.92-.52c-.53-.43,3.92-.64,6.09-1.26a14.18,14.18,0,0,0,2.47-.17c-1.07.74-3.64,1.3-12.18,2.43a39.76,39.76,0,0,0-6.17.47c6.43-.53,14.36-.16,2.62,1.22-1.16,1.64,2.74,2-4.58,3.74,6-.64,3.81-1,8.53-1.6,1.32.57-1,1.8-8.42,2.65,2,0,2.14.37,1.3.66,4-.37,4.17-.11,3.4.25l-1.54.17-1.05.07.17,0-1.88.22c-.5,0-1.34.1-2.71.25-.6.16-1.4.32-2.39.48-1.51.1.63-.44-3.21.06.58.18-6.47.63-6.26.82-6.35.51-13.34,1.1-17.52,1.85,11.62-1.35,13.55-.77,20.1-1.5a26.5,26.5,0,0,0,5.95.16,5.64,5.64,0,0,1-2.59.95c3.16-.1.6.34,6.21-.12-.62.2-1.8.41-2.41.61a17.8,17.8,0,0,1,5-.08,63.4,63.4,0,0,1-8.59,1.17c-4.34,1.22.23.88-1.06,1.79A107.94,107.94,0,0,1-138,142.57c-3.34.29.93.32-2.43.61-.15-.09-.38-.17-2.47.08-.68.13-5,.79-1.2.48.13-.12.35-.24,2.45-.43-2.11.57.16.47.09.87,6.72-1,.88.5,7.42-.25a22.29,22.29,0,0,1,4.58-.69,9.44,9.44,0,0,1-3.7,1.07c6.11-.78,12.25-1.37,16.27-1.88-2.85.83,5.93-.39,7.56-.35-.39.16-1.75.35-1.22.48,6.89-.41,15-1,26.34-2.24.82.46,8.2-.33,12.59-.71-.56.56-4.53,1-12.46,1.93,8.13-.84,6.35.07,12.62-.44.67-.2-1.51-.3,1.21-.57,1,.1,7-.7,10-1,.06-.37,5.08-1.23,10-1.49-.83-.13-2.57-.18,2.46-.7,3.66.17,25.86-2.43,30.07-2.89.48-.26-5.7.65-3.78.13-4,.71-12.57,1.31-18.78,1.89,4.88-.92,13.1-1.59,21.27-2.24,5-.67,12.78-1.51,19.16-2.07V133H3.69c-3.87.37-6.5.57-8.95,1,2.85,0,8.46-.5,13.39-1h1.92c-1.59.25-4.46.55-5.18.77l7.3-.77H13.8c-2.36.26-5.57.55-5.15.71,1.47-.05,4.55-.38,7.62-.71h5.89c-3.76.41-6.71,1-9.67,1.1,2,.11-4.25.5-3.72.66,5.82-.87,8.36-.65,11.28-1.1-.78.08-1.49.14-1.26,0l1.26-.12h0l4.37-.46c.38,0,.41.08-1.86.36a3.47,3.47,0,0,0-1.24.13,45.34,45.34,0,0,0,5.59-.62h2.78a6.89,6.89,0,0,0-.79.18l1.69-.18H1024V26.41l2.48-.55c11-.87,33.25-3.9,48.83-5.13a91.08,91.08,0,0,1,11.25-1.36c1.48-.29,4.71-.63,6.24-.92-1.52.14-.78,0,0-.17-7,.65-16.06,1.64-20.07,1.76,4.32-.36,9.48-1.2,6.23-1-3.06.49-5.68.55-10,1.14.11-.28-4.32.24-5.86.25,3-.37,2.94-.18,5.8-.51,1.84-.85,13.39-1.44,15-1.4.92-.37-4.32.35-2.54-.17-3.14.15-11.47,1.22-14.69,1.39,7.92-1.07,22.73-2.25,29.7-3.22,1.52-.44-4.05.36-2.53-.09l5.18-.6,1.05-.07-.17,0c2.53-.29,4.31-.51,6.81-.94,1.87-.16-.59.45,3.38-.08-.42-.13,3.22-.4,5.13-.62,0,.15-.22.34,2.18.19a82.87,82.87,0,0,1,8.6-1.08c.44-.1.8-.19,1.11-.27,2.6-.27,5-.57,6.77-.89-2.31.27-4.24.46-5.9.6,1.82-.78-3.29-.82-3.4-1.14-.19.15.47.28-1.2.48a36.06,36.06,0,0,1-3.69.3c8.09-1.65,9.59-3.07,14.43-4.6-6.35.6-5,1-3.61,1.09-6.69,1.28-3.76,2.23-13.3,3.6,1.5-.74-1.3-.75,1.07-1.7-8.79-.07,16.06-2.77,7.16-2.87,2.29-.52,5.69-.54,7.36-1-4,.33,3.24-.91-1.31-.57.06.29-1.65.64-3.63,1-1.95-.09-1.31-.61,1.13-1.09,4.67-.62.29.36,4.94-.26.07-.77,1-1.31-.17-1.57-5,.86-1,.89-7.26,1.82,1-.56,1.68-1.8,2.24-2.26a14.39,14.39,0,0,1-2.44.35c2.06-.44-1.21-.43,2.37-1,5.4-.24-.63.73,2.58.79,4.64-1,8.43-2,13.35-3,1.37.08-3.7.81.05.52,1.29-.36.72-.67,3.63-1.09,1.61.18,2.53-.29,6.15-.65-1.59.39,3.05.31,5,.36a134.45,134.45,0,0,1-18.25,3.68c6.34.28-4.37,2.2-3.41,3,4.91-1.91,12.56-3.86,18.08-5.34-1.64,2.27,1.91,3.25-.63,5.71-5.9.67-3.68,1.06-6,1.61,4.85-.37.37-.42,3.65-.74a9.25,9.25,0,0,0,3.74.14c3.68-.67-1-.57,3.6-1.17.79.66-5,2.22,3.91,1.62,1.26-.82,4.19-1.79,1.06-1.79,2.19-.07,3.11-.4,7.37-.77,1.18-.77-4.11-.4-2.61-1.22l-4.92.52c.53.43-3.92.64-6.09,1.26a14.41,14.41,0,0,0-2.47.17c1.07-.75,3.64-1.29,12.18-2.43a39.75,39.75,0,0,0,6.17-.47c-6.42.53-14.36.16-2.62-1.22,1.16-1.64-2.74-2,4.58-3.74-6,.64-3.81,1-8.53,1.6-1.32-.57,1-1.8,8.42-2.65-2,0-2.14-.37-1.3-.66-8.16.74-.37-1.06-1.37-1.18,6.45-.59-2.87,1.06,5,.18a47.87,47.87,0,0,1,4.88-.87c-3.36-.09-1.49-1.59,1-2-3.16.1-.6-.35-6.21.12.62-.2,1.8-.41,2.41-.6a17.85,17.85,0,0,1-5,.08,63.06,63.06,0,0,1,8.59-1.17C1189-9.46,1184.44-9.12,1185.73-10ZM777.28,27.5c-2.9.23,1-.49,1.18-.65C782,26.59,778.16,27.31,777.28,27.5ZM1124.06-5.31a32.42,32.42,0,0,1-7.42.43C1120.37-5.25,1120.14-4.91,1124.06-5.31ZM1094.86.76c4.28-.38,4.71-.63,8.61-1-.73.57-.48,1-11,1.86C1091.21,1.41,1096.11,1,1094.86.76Zm3.81.75c-.64.14-1.27.27-1.2.39a32.7,32.7,0,0,1-3.7.39c.24.23,5.06-.13-1.17.57.23-.1,1.22-.22,1.2-.3a49,49,0,0,0-4.94.26c6.63-.86,0-.23-.06-.61C1094.7,1.5,1093.38,2.09,1098.67,1.51Zm-19.58,2.94c4.59-.48,3.52-.27,7.37-.78-3.42.91,7.72-.76,8.61-.9,2.39.1-5.39,1.29-8.51,1.86,1.41-.25,1.37-.46,1.17-.65-5.46.62-4.38,1-9.77,1.64C1081.19,5,1077.2,4.87,1079.08,4.44Zm-1201,137.49a6.67,6.67,0,0,1,.77,0,22.77,22.77,0,0,1-3.42.48A20.41,20.41,0,0,1-121.94,141.93Zm179.49-31a28.72,28.72,0,0,1,5.48-.51l-4.17.57A4.39,4.39,0,0,0,57.55,110.9Zm38.81-4.29.15,0,3.68-.39-.13.09Q98.23,106.48,96.36,106.62Zm150.71-16c.76,0,2-.06,3.4-.15-1.91.18-4.41.4-6.44.64h-.37c.21-.1.46-.19.74-.29C245.43,90.68,246,90.68,247.07,90.58Zm5.24.86a31,31,0,0,1-4,.52l-.38,0h0c-1.41.13-2.71.22-3.08.24,3.33-.41,1.36-.63,6.22-1.1C254.45,91,246.62,91.93,252.31,91.44Zm515.2-58.83,0-.35c-2.11.19-3.13.46-3.68.39a15.57,15.57,0,0,1,7.34-.08c-3.56.4-8.62,1-9.37.88v0a26.4,26.4,0,0,0-2.85.13c.13-.24.2-.47,3.67-.83C762,33.11,763.67,33.05,767.51,32.61ZM952.79,21.37l1.56-.21-.22.13Zm6.38-.94.57-.09,2.87-.3c-.45,0-.8,0-1.06,0,2.06-.35,4.08-.69,6.23-1-1.4.5-2.74,1-3.95,1.46l-4.3.4C960.07,20.65,960.22,20.47,959.17,20.43ZM829.62,30.22l.49-.14c.19,0,.44,0-.11.1a27.88,27.88,0,0,1,4.25-.17c-1.12.25-2.69.52-4.8.81,0,0,0,0,0,0l-2.7.37c.9-.3,1.82-.61,2.84-.91l.39,0Zm11,.08a12,12,0,0,1-3.54.13c1-.16,1.59-.36,2.38-.54C839.31,30.13,838.5,30.47,840.63,30.3Zm-3.68.47c-2.15.19-2.89.12-4.31.18l.94-.2c.77,0,1.4-.07,2-.12C835.38,30.72,837.81,30.56,836.95,30.78Zm-14.28,1.68,1.52-.47,2.66-.49c-.63.26-1.14.51-2,.78C824.21,32.31,823.47,32.36,822.67,32.45Zm5.37.06.08,0c1-.13,1.87-.25,2.41-.36l1.65-.11C830.6,32.18,829.23,32.35,828,32.52Zm-.73,1.21.12,0,.88-.08Zm8.91-2.06-.27,0,.08,0Zm-5.79-.17.66-.18c1.09-.07,2.31-.16,3.28-.21Zm14.05-1.94a11,11,0,0,1-2-.06l.92,0c.53-.22-1.71-.35,2.42-.7C844.46,29.06,844.92,29.3,844.48,29.56Zm-8.77,0c-2,.19-3.92.36-5.07.33h-.11l1-.26c.26,0,.44,0,.39.12,2.14-.3,4.23-.77,3.69-.3l.69-.11A4.38,4.38,0,0,1,835.72,29.61Zm-73.89,4.53h-.37l.36-.08Zm-1.66,1.81h.72l-.47.06a5.19,5.19,0,0,0,1.27,0,.63.63,0,0,1,.38.15l-5.45.85c-.53,0-1-.06-1.45-.1A37,37,0,0,0,760.17,35.94ZM244.82,92.49c-3.06.49-6.19,1-10.49,1.51l-.72,0a19.87,19.87,0,0,0,2.5-.35l-2.39.26.75-.13C236.86,93.41,240.53,93,244.82,92.49Zm6.67-.11h0Zm-3.93.17a1.27,1.27,0,0,0,.53.16c-2,.22-3.93.44-5.4.52.11,0,0-.09-.3-.11C244.3,92.93,246,92.71,247.55,92.55Zm-5.23.57-.89.13-.33,0Zm-167,15.7-4.88.6a13.62,13.62,0,0,0,2.07-.76A26.65,26.65,0,0,1,75.37,108.82ZM1084.16,15c.59-.08,1.3-.17,2.22-.27.12,0,0,.14.25.17C1084.19,15.11,1083.9,15.08,1084.16,15ZM1053.43,3.8c1.17-.29,1.59-.53.65-.69,3.51-.58,6.53-.63,9.82-1.12.09.51-1.13,1.13-2.32,1.66-3.83.34-6.95.66-9.77,1C1052.33,4.36,1053,4.06,1053.43,3.8Zm-2.76.55a2.57,2.57,0,0,0-.48.48c-3.22.4-6.15.81-9.48,1.27C1043.11,5.55,1047.47,4.91,1050.67,4.35Zm-39.28,6.51c-4.14,0-1.06-.32-3.78-.4,3.08-.26,5.06-.44,7.37-.86-.84-.18-2.62.36-4.92.52,7.73-1.13,1-.82,8.51-1.78-1.37.27-1.3.35,1.26.13.62.21-3.75.59-2.41.78,6.39-.37,9.48-1.37,14.72-2-2.54.18-7.77.8-11.07,1.16.35-.33,7.76-.9,8.57-1.25,8.29-.59.49,1-2.33,1.57,4.89-.2,13.69-1.65,18.46-1.85,4.3-.64,7.11-1.23,9.77-1.82,4.21-.1,2.95.4.12,1.13a83.1,83.1,0,0,0-8.61,1c-.33.19,1.18.06,1.24,0,2.17,0,.74.3-2.41.78.91,0,2.26-.1,3.7-.21A20.42,20.42,0,0,0,1052,7.2c2.71-.2-1,.55-3.63.82.56-.25-1.78,0-3.7.21-1.67.2-1,.33-1.2.48-6.78.83-10.06,1-9.8,1.38-3.33.24,0-.45-.06-.61,10.08-.79,19.09-3,7.3-1.47-3.39.73-6.9,1.46-13.45,2.3,0,.17,3.39-.25,2.51.09-2.92.42-4.49.79-9.81,1.29-3.41-.39,2.68-1.61,7.16-2.69-3.75.37-4.94.51-9.83,1-2.31.68,4.12-.2,3.75.13-8.59.7-5.43,1-11,1.6,2.11.07-.62.45-2.4.87-3.26.37,1.1-.61-3.73,0,.67-.2-1.48-.3,1.19-.57-.73-.14-4.66.29-7.41.51,2.9-.56,5.32-1.11,11-1.77-.43.16-2.15.37-2.44.52Zm-10.17-2c-1.94.2-3.46.41-4.7.64a2.47,2.47,0,0,0-1-.31A34.37,34.37,0,0,1,1001.22,8.84Zm-5-.36c.83.16-.9.41-1.21.61-.6-.06-1.34-.11-2.18-.13C993.61,8.83,994.68,8.67,996.21,8.48Zm-4.68,5.26c.58.15-.32.43-2.05.77ZM788.64,29.13c2.17-.15,2.76,0,2.51.27C788.43,29.61,787,29.41,788.64,29.13ZM761.26,32.3c4.85-.37.39-.42,3.65-.74,4.7-.42,11.24-1.25,15.09-1.81l0,.46c-1.4.22-3.27.46-6.13.73a9.44,9.44,0,0,0-1.24.51l-.3,0c-.55-.11-3.54.21-2.53-.18-5.28.7-12.35,1.9-15.93,2C756.59,33,762.7,31.66,761.26,32.3Zm-28.12,4.54c5.27-.45.19.42-1,.83l-1.44.12C730.57,37.6,733.89,37,733.14,36.84ZM726,39.2l1.13-.06-1.17.12S726,39.22,726,39.2Zm-55.86,1.26a12.46,12.46,0,0,1-1.33.29l-.38-.09Zm-18.43,2c.66-.49,7.42-1.11,12-1.59a3.64,3.64,0,0,0,.82.48,59.56,59.56,0,0,0-6.65,1.08c-4,.34-7,.7-9.88.69,4.67-.59,7.71-.58,8.61-1C656.43,42,652.47,42.53,651.7,42.49Zm-24.83.41c6.21-.72,7.31-.53,12.33-1-2.2.52-4.46.54-9.82,1.21C628.83,43,625.85,43.28,626.87,42.89Zm6.92.58h-.28c.25.12.33.21.5.27-5,.36-12.5,1-15.66.91C623.24,44.32,630.42,43.56,633.8,43.48Zm-27.64,3.36c4.95-.37,7.6-1,12.3-1.29,2.2-.59-7.68.71-11.09.9-.21-.26,3.12-.63,6.11-1,5.83-.32,16.48-1.5,18.52-1.15-3.15.44-5.67.9-8.3,1.37-.68,0-1.47.08-2.38.17-.3.11-.39.21-.31.3-3.92.66-8.55,1.31-16,1.88,2.16-.53-2-.39-6.2.21C597.86,47.87,607.95,47.15,606.16,46.83Zm-10.79,3.78c.69-.37,7.82-1,7.33-1.3.51,0,.83-.05,1.09-.05-1.26.29-1.4.52-.75.66-1.43.16-2.9.33-4,.48C599.64,50.15,597.3,50.42,595.36,50.61Zm-18.78,6.71c-1.7.19-4.38.41-5.6.64s-2.36.17-3.22.19c2.2-.27,3.77-.52,3.78-.72-.49,0-1.26.09-2.12.18C574.24,57,578.36,56.8,576.58,57.33ZM528.36,60.1c3.39-.28,4.36-.12,5,.1-2.63.32-2.36.12-2.48,0-1.06.1-1.16.16-1.22.22C527,60.7,529,60.16,528.36,60.1Zm-52,1.44c-.93.19-1.78.36-2.49.49-.25,0-.61,0-1,0C473.57,61.9,475,61.72,476.34,61.54Zm-28.72,2.75a64.11,64.11,0,0,1,9.53-.38c-.62.1-1.21.21-1.72.32.56-.34-1.56-.2-3.73,0-1.54.3-3.11.6-5.12.91C447,64.62,447.15,64.73,447.62,64.29Zm-8.73-.14a38,38,0,0,1-4.83,1.21c-.77,0-4.74.48-4.95.34C431.48,65.22,434.9,64.69,438.89,64.15ZM411.94,68a28.85,28.85,0,0,0,3.69-.48c5.75-.38-3.14,1-6.07,1.43A6.76,6.76,0,0,1,411.94,68Zm-36.5,7a8.52,8.52,0,0,1-.92.18,5.49,5.49,0,0,1-1.18-.07C374.17,75,374.85,75,375.44,74.94ZM281,86.08c2-.13,3.86-.25,4,0s-.45.27-1.24.42A12.35,12.35,0,0,1,281,86.08Zm.6,1.7a13.15,13.15,0,0,1-1.44.29C279.84,88,280.51,87.93,281.56,87.78Zm-5.9,1-.34.15-1.35.22c-.64,0-1.41.07-2.9.24C272.36,89.14,274.15,88.9,275.66,88.77Zm-22.14,2.11c-1.4.11-2.68.19-3.6.22a21.74,21.74,0,0,1,3.92-.27Zm-76.09,4.9c-.7.19-.93.34-.93.47-.32.08-.35.14,0,.18a4.84,4.84,0,0,1-.5.17l-1.51.2c1.3-.39,1.25-.62-3.15-.29C171.06,96.34,175.63,96,177.43,95.78ZM118,98.32c4.25-.52,4.74-.37,8.61-.82a79.78,79.78,0,0,1-9.81,1.3C116.66,98.65,118.32,98.45,118,98.32Zm-60.27,8.74,5.19-.72c-.75.29-.39.51,1.6.22-.54-.19,1.5-.46,1.38-.66,3.13-.47,5.89-.93,8-1.36,0,.14,3.42-.31,3.7-.21,3-.4,2.63-.31,7.37-.86-.47.22-4.76.57-3.65.74q-4,.45-3.73.13c-2.52.93-5.2,1.87-7.39,2.79l-.66.06c0,.07,0,.11.21.14a18.27,18.27,0,0,0-2.88,1.49l.5,0L66,109c1.8-.11,4.77-.43,3.72,0-7.54.69-12.52.92-17.27,1.11C51.31,109.11,58.4,107.8,57.76,107.06Zm-79.68,8.08c-.18.24,1.92.07,3.72,0a36.48,36.48,0,0,1,6.11-.91c-1.45.31-2.8.62-4.06.92s-2,.32-2.88.48c-2.76.15-3.87,0-4.38-.25C-23,115.28-22.54,115.21-21.93,115.14ZM-84.87,128c5.6-.16,3.52.34,3.3.72l-8.44,1C-88.46,129.12-85.38,128.51-84.87,128Zm-25.57,5.07h-.08l.33,0Zm-2.52,0c-4.32.36-9.48,1.2-6.23,1,2.28-.36,4.32-.49,7-.78a13.46,13.46,0,0,1-1.93.38c-1.61-.18-2.53.29-6.15.65,1.37-.34-1.89-.32-4.06-.34C-119.73,133.47-115.41,133.08-113,133Zm-13.71-.62c-5,.56-1.41-.4-2.55-.53,2.15-.39,3.83-.28,4.91-.69C-120.87,131.08-124.66,132-126.67,132.38Zm-2.8-3c6.36-.27,3.46.9,1.41,1.53C-132.11,131.23-127.83,129.79-129.48,129.42Zm-15.84,10.11,2.93-.22c-.06.07,0,.13.3.16C-144.55,139.65-145.36,139.64-145.31,139.52Zm79.79-.84c4-.89,13-1.5,18.79-2C-50.68,137.59-62.6,138.95-65.52,138.68ZM23.77,133l-2.29.24c.09-.08.18-.15.75-.25h1.53Zm1039-112.6-.18,0,.62-.13Zm18.31-4.69c1.34-.26,4.09-.57,5.74-.83.17,0,.42,0,.79,0,1.77-.32,1.75-.76,4.89-.87-.88-.58-.52-.91,4.78-1.83,12.7-1,6.27.73,8.27,1.34C1098.67,13.93,1089,15,1081.11,15.71Zm27.44-2.39c-.25-.16-.4-.33,1.25-.56l2.45-.26c.32.26.21.53-.06.81C1111.21,13.26,1110,13.27,1108.55,13.32ZM1119,6c-7.26.2-1.61-.69-3.83-1,5.74-.62,4.06-.65,9.83-1.12C1124.5,4.51,1119.68,5.31,1119,6Zm17-4.08a31.41,31.41,0,0,0-3.7.21c.62-.19,1.78-.41,2.41-.6C1138.79,1.13,1136.52,1.65,1136,1.9ZM1155.59-1c-3.89.28,3.72-1.12-2.54-.61a13.68,13.68,0,0,1,3.66-.65c-.74.16-2.84.62,1.25.13C1157-1.69,1158.07-1.55,1155.59-1Zm5.24,2.53c5-.56,1.41.4,2.55.53-2.15.39-3.83.28-4.91.69C1155,2.88,1158.82,2,1160.83,1.58Zm2.8,3c-6.36.27-3.46-.9-1.41-1.53C1166.27,2.74,1162,4.18,1163.64,4.55ZM1176.25-5.5c8-.58-1.33.82-1.1,1.26C1169-3.85,1178.37-5.21,1176.25-5.5Z"/><path class="cls-2" d="M312.64,77.75c1.39-.26,2.4-.95-.08-.78C313.16,77.14,307,78.3,312.64,77.75Z"/><path class="cls-2" d="M174.52,88.38c1.23-.13,1.47-.08,2.47-.17-.35-.27,4.75-.61,4.92-.61,1.18.45-3.7,1.52,3.81.92.83-.53,8.14-2.44-1.42-1.7.37-.15-.25-.52-1.25-.13,1,.23.7.6-2.41.78,3-.37.6-.51-2.5-.09-2.67.58-.55.44-4.86,1C174,88.35,174.73,88.29,174.52,88.38Z"/><path class="cls-2" d="M278.54,84.59c4.19-.48,3.58-.1,3.41.2,2.13-.45,5.54-.8,3.62-1,1.77-.16,2.08-.07,3.72-.21-3.91-.08-6.16-.13-1.37-1.18-1.45.08-3.31.23-6.16.56-3.07.63-3.13,1.17-4.59,1.75-5.58.52-6.8,1.41-12,2.09C274.59,85.89,275.68,85.27,278.54,84.59Z"/><path class="cls-2" d="M774.72,26.8c-4.59.48-4.15.78-4.84,1.13C775.74,27.4,774.86,27.11,774.72,26.8Z"/><path class="cls-2" d="M175.9,89.65c1.4-.38,4.43-1.08-.08-.78C177,89,172.13,89.85,175.9,89.65Z"/><path class="cls-2" d="M310,76.61c.28.14-.73.95,1.3.48-.24-.28.27-.59,2.39-1,.17.15.84.21,2.49.09-1.07-.17,1-.44,2.42-.7-4.58.34-2.93-.43-8.7.12,1.21.29-2.37,1.27-8.55,1.52.07.11-.55.25-1.18.39C302,77.59,309.92,76.49,310,76.61Z"/><path class="cls-2" d="M47,105.14c-.33.07-.56.12-.72.17Z"/><path class="cls-2" d="M651.83,40.33c1.24-.9.77-1.91-1.46-2.14.64.39-2.21.73-3.67.56C647.22,39.49,646.28,40.49,651.83,40.33Z"/><path class="cls-2" d="M172.08,88.73c-.56-.14-2.67,0-3.74,0-1.67.29-1.18.51-1.17.74C171.16,89.11,168.08,89,172.08,88.73Z"/><path class="cls-2" d="M158.62,90.94c.63-.87,3.77-1.49,1-2C157,89.84,155,90.86,158.62,90.94Z"/><path class="cls-2" d="M157.64,93.33c-.48-.19,1-1.18-1.31-.74C156.8,92.77,155.3,93.77,157.64,93.33Z"/></svg>
