<?xml version="1.0" encoding="UTF-8"?>
<svg width="236px" height="106px" viewBox="0 0 236 106" version="1.1" xmlns="http://www.w3.org/2000/svg" xmlns:xlink="http://www.w3.org/1999/xlink">
    <!-- Generator: Sketch 45.1 (43504) - http://www.bohemiancoding.com/sketch -->
    <title>Group 5</title>
    <desc>Created with Sketch.</desc>
    <defs></defs>
    <g id="26th-Iteration" stroke="none" stroke-width="1" fill="none" fill-rule="evenodd">
        <g id="01---Homepage" transform="translate(-727.000000, -670.000000)" fill="#0086BF">
            <g id="Group-5" transform="translate(727.000000, 670.000000)">
                <g id="noun_1005539_cc" transform="translate(38.000000, 0.000000)" fill-rule="nonzero">
                    <path d="M157.767592,73.7491825 C148.880862,73.7491825 141.672431,80.9444635 141.672431,89.8180606 C141.672431,98.6916578 148.880862,105.886939 157.767592,105.886939 C166.659324,105.886939 173.862752,98.6916578 173.862752,89.8180606 C173.862752,80.9444635 166.659324,73.7491825 157.767592,73.7491825 Z M157.767592,96.221636 C154.230908,96.221636 151.364544,93.3545125 151.364544,89.8180606 C151.364544,86.2816087 154.230908,83.4194803 157.767592,83.4194803 C161.309277,83.4194803 164.178143,86.2816087 164.178143,89.8180606 C164.178143,93.3545125 161.309277,96.221636 157.767592,96.221636 Z" id="Shape"></path>
                    <path d="M40.589319,73.7491825 C31.7000881,73.7491825 24.4966595,80.9444635 24.4966595,89.8180606 C24.4966595,98.6916578 31.7000881,105.886939 40.589319,105.886939 C49.47855,105.886939 56.6844798,98.6916578 56.6844798,89.8180606 C56.6844798,80.9444635 49.4760488,73.7491825 40.589319,73.7491825 Z M40.589319,96.221636 C37.0476333,96.221636 34.1787679,93.3545125 34.1787679,89.8180606 C34.1787679,86.2816087 37.0476333,83.4194803 40.589319,83.4194803 C44.1285036,83.4194803 46.9998702,86.2816087 46.9998702,89.8180606 C46.9998702,93.3545125 44.1260024,96.221636 40.589319,96.221636 Z" id="Shape"></path>
                    <path d="M197.021275,77.1432772 L196.405982,77.1432772 L196.405982,66.4065493 L196.395977,66.4065493 C196.375968,65.0753848 196.055815,63.8116527 195.505554,62.6852828 C195.045335,61.7487225 174.82321,31.1544176 167.599771,20.2553525 C166.039029,17.8952204 161.016638,11.8937417 156.604538,8.37477224 C151.449585,4.26639415 147.04999,2.20346388 140.564404,1.00466663 C138.783556,0.660012416 136.967692,0.435237931 135.129317,0.28289078 C134.824171,0.260413332 134.524029,0.242930872 134.218883,0.225448412 C133.125863,0.160513561 132.04785,0.123051147 130.944825,0.123051147 L13.013694,0.123051147 L13.013694,0.118056158 L9.36195595,0.118056158 C6.03787381,0.118056158 3.34159048,2.81784747 3.34159048,6.13451987 L3.34159048,82.0658384 L3.34159048,82.0658384 L3.34159048,82.4954074 L3.3365881,82.4954074 C3.3365881,82.5253774 3.34159048,82.5453573 3.34159048,82.5678348 C3.34159048,83.0448562 3.02894167,83.4544452 2.59373452,83.5918074 L2.58623095,83.5918074 C2.5487131,83.5968024 2.5212,83.6117874 2.49118571,83.6217773 C2.46367262,83.6267723 2.43615952,83.6317673 2.41114762,83.6417573 C2.29109048,83.6667322 2.17603571,83.7041947 2.06098095,83.7541445 C2.04597381,83.7591395 2.04097143,83.7691295 2.03096667,83.7691295 C1.92091429,83.8140844 1.82086667,83.8665318 1.72081905,83.9239741 C1.70331071,83.9389591 1.68330119,83.9539441 1.66579286,83.9639341 C1.62577381,83.993904 1.57324881,84.0263714 1.53573095,84.0513464 C1.43068095,84.1287687 1.32813214,84.211186 1.23808929,84.3060908 C1.22558333,84.3160808 1.21307738,84.3260707 1.20307262,84.3360607 C1.09802262,84.443453 1.00047619,84.5608352 0.910433333,84.6832124 C0.892925,84.7131823 0.880419048,84.7331623 0.862910714,84.7656297 C0.692829762,85.0153791 0.572772619,85.307586 0.505240476,85.6147778 C0.495235714,85.6547377 0.487732143,85.6872051 0.480228571,85.727165 C0.447713095,85.8870047 0.430204762,86.0443468 0.430204762,86.2041864 L0.430204762,90.6871887 C0.430204762,92.1557153 1.61827024,93.3370301 3.08146667,93.3370301 L16.5478762,93.3370301 C18.9515202,93.3370301 20.9074512,91.4489244 20.9999952,89.0638174 C21.01,89.006375 21.01,88.9514301 21.01,88.8889928 L21.01,88.8165654 C21.53525,78.4794366 30.1043286,70.255188 40.589319,70.255188 C51.0618036,70.255188 59.6183762,78.4644517 60.1586333,88.7965855 C60.153631,88.7965855 60.153631,88.8065755 60.1586333,88.8165654 C60.1661369,88.9764051 60.1686381,89.1387422 60.1761417,89.2935868 C60.1686381,89.2985818 60.1686381,89.3085718 60.1761417,89.3135668 C60.1761417,89.3585217 60.1786429,89.4009791 60.1886476,89.440939 C60.456275,91.6412315 62.3396714,93.3395276 64.6157548,93.3395276 L133.738655,93.3395276 C136.139798,93.3395276 138.095729,91.4514219 138.190774,89.0663149 C138.193275,89.0088725 138.193275,88.9539276 138.193275,88.8914903 L138.193275,88.8615203 C138.691012,78.5069091 147.265093,70.2576855 157.76509,70.2576855 C168.210062,70.2576855 176.746625,78.4145018 177.334405,88.6916907 C177.346911,88.9464351 177.36692,89.243637 177.36692,89.4908889 C177.632046,91.6911814 179.51044,93.3395276 181.789025,93.3395276 L195.312962,93.3395276 C196.781161,93.3395276 197.966725,92.1582128 197.966725,90.6896861 L197.966725,78.0948225 C197.966725,77.5678512 197.541523,77.1432772 197.021275,77.1432772 Z M172.119423,46.7013194 C172.094411,46.7038169 172.066898,46.7038169 172.039385,46.7038169 C172.011871,46.7038169 171.98686,46.7038169 171.959346,46.7013194 C171.951843,46.7013194 171.939337,46.6963244 171.929332,46.6963244 L159.76104,46.6963244 L153.022833,46.6963244 L135.106806,46.6963244 C133.743657,46.6288921 132.655639,45.5000247 132.655639,44.1189103 L132.655639,22.6754245 C132.655639,21.2468577 133.816192,20.0955129 135.239369,20.0955129 L153.725668,20.0955129 C155.716615,20.0955129 157.509969,20.8772286 158.845605,22.1384632 L158.850607,22.1284732 L173.112395,44.0115181 C173.137407,44.0290006 173.154915,44.0539755 173.177426,44.0739555 L173.222448,44.1214078 L173.212443,44.1214078 C173.455058,44.3936347 173.610132,44.7507764 173.610132,45.1403855 C173.607631,45.9745486 172.947317,46.658862 172.119423,46.7013194 Z" id="Shape"></path>
                </g>
                <rect id="Rectangle-7" x="29" y="19" width="14.6666667" height="6"></rect>
                <rect id="Rectangle-7-Copy" x="20" y="34" width="22.4888889" height="6"></rect>
                <rect id="Rectangle-7-Copy-2" x="10" y="49" width="34.2222222" height="6"></rect>
                <rect id="Rectangle-7-Copy-3" x="9.09494702e-13" y="65" width="44" height="6"></rect>
            </g>
        </g>
    </g>
</svg>