<svg id="Layer_1" data-name="Layer 1" xmlns="http://www.w3.org/2000/svg" viewBox="0 0 69 90"><defs><style>.cls-1{isolation:isolate;}.cls-2{fill:#0086bf;}</style></defs><title>2</title><g class="cls-1"><path class="cls-2" d="M10.5,88.9c-.2-.1-.5-.2-.9-.4s-.9-.3-1.4-.5a8.33,8.33,0,0,0-1.5-.4,3.75,3.75,0,0,0-.8-.1,5.06,5.06,0,0,1-.9-.8c-.4-.5-.7-1-1.1-1.6s-.6-1.2-.8-1.7a2.18,2.18,0,0,1-.2-1.3h.7c.3-.3.3-.5-.2-.6s-.6-.2-.6-.4a.58.58,0,0,1,.8-.5.87.87,0,0,0,.9-.5A16.8,16.8,0,0,1,6.3,78a12.87,12.87,0,0,0,1.9-2.1c.9-1.1,1.8-2.2,2.8-3.3s1.9-2.2,2.9-3.4v-.4a.76.76,0,0,1,.1-.4,8,8,0,0,1,1.8-2.5,24,24,0,0,0,2.1-2.3c.1-.1.3-.5.8-1.3a6.94,6.94,0,0,1,.9-1.5,25.08,25.08,0,0,1,2.7-3.7,25.67,25.67,0,0,0,2.8-3.7q3.6-6,6.6-11.7A104.26,104.26,0,0,0,37,29.5,31,31,0,0,0,38.3,25a33.28,33.28,0,0,0,.7-5.4,17.69,17.69,0,0,0-.5-5.2,7.55,7.55,0,0,0-2.2-3.9,3,3,0,0,0-1.6-.8,4.53,4.53,0,0,0-1.6.3,6.47,6.47,0,0,0-1.6.9c-.5.4-1.1.8-1.5,1.2-.2.2-.6.6-1.2,1.1A14.54,14.54,0,0,1,27,14.8c-.6.6-1.2,1.1-1.8,1.6A10,10,0,0,1,24,17.5a8.36,8.36,0,0,1-1.6.7A22.5,22.5,0,0,1,20,19a16.35,16.35,0,0,1-2.2.2,2.35,2.35,0,0,1-1.6-.5,2.09,2.09,0,0,0-.6.4,5.2,5.2,0,0,1-.5.3c0,.1,0,.1-.1.1s-.1,0-.1-.1v-.2l-.8-.1.1-1.3-1.9,1.5a2,2,0,0,0-2.6.5q-.3-.6-.6-.3a3.81,3.81,0,0,0-.6.5,5.92,5.92,0,0,1-.6.4A2.31,2.31,0,0,0,7,21c-.2-.1-.3-.2-.2-.4a1.27,1.27,0,0,0,.1-.6,3.09,3.09,0,0,0-.2-.8,2.87,2.87,0,0,0-1.3-.9c-.3-.1-.6.1-.9.4s-.4.6-.5.6c0-.2.2-.4.5-.9A17.41,17.41,0,0,0,5.7,17a8.31,8.31,0,0,1,1.4-1.3,10.53,10.53,0,0,0,.9-.8,8.18,8.18,0,0,0,.8-.9,5.24,5.24,0,0,1,1-1.1A7.69,7.69,0,0,0,11,11.6l.2-.5a4.41,4.41,0,0,0-1.7,1.2c-.7.7-1.5,1.6-2.4,2.5s-1.7,1.9-2.6,2.8-1.6,1.7-2.2,2.2-1,.7-1.2.5-.1-.9.4-2.1a.53.53,0,0,0-.6-.6c-.4,0-.5-.2-.4-.7s.5-.9.7-1.3a2.61,2.61,0,0,1,1.2-1.1v.8a14.82,14.82,0,0,0,2.4-2.6A27.55,27.55,0,0,1,7.1,10a27.25,27.25,0,0,1,9.1-6.2A36.42,36.42,0,0,1,26.9,1.2L31,.9A16.06,16.06,0,0,0,34.8.1l5.4.2c0,.2.4.2,1.2.2a4,4,0,0,1,1.5.2,11.78,11.78,0,0,0,2.5.4,10.68,10.68,0,0,1,2.5.3A21.07,21.07,0,0,1,55.3,4a2.65,2.65,0,0,0,.5.6c.3.3.5.6.8.9s.5.6.8.9.3.6.2.6h-.2c-.2.2-.1.3.2.4a3.93,3.93,0,0,0,.6.2c-.2.2,0,.6.4,1.1s.7.9.9,1.2a15.55,15.55,0,0,0,.8,2.3,10.15,10.15,0,0,1,.6,2.5,9.15,9.15,0,0,0,.1,1.7,5.55,5.55,0,0,0,.3,1.7,18,18,0,0,1-.5,6.2v1c0,.5-.1.8-.2.8a28.59,28.59,0,0,1-2.3,7.7c-1.2,2.4-2.3,4.9-3.4,7.4l-.2.5c-.1.1-.1.2-.1.4v.2a13.29,13.29,0,0,1-2.6,5,47.13,47.13,0,0,0-3.3,4.5c-.4.9-.8,1.6-1.1,2.3a4.61,4.61,0,0,1-1.7,1.7,2.65,2.65,0,0,0-.6,1.1,8.93,8.93,0,0,1-.5,1.3h-.4c-.1,0-.1,0-.1-.1a.55.55,0,0,0-.2.5.75.75,0,0,1-.1.5c-.2.2-.3.3-.4.3a.54.54,0,0,0-.4.3,60.79,60.79,0,0,1-4.7,6.6A67.9,67.9,0,0,0,33.6,73a9.84,9.84,0,0,1-1.7,2.2,11.5,11.5,0,0,0-1.8,2.3c.1.1.3.1.6.1a1.93,1.93,0,0,0,1.1.4,6.61,6.61,0,0,0,1.1.1c3.4.2,6.1.2,8.3.2s4.2,0,6.2-.1h6c2.1,0,4.8.1,8.2.3a2.3,2.3,0,0,0,.9.3,1.27,1.27,0,0,1,.7.4l4,.2a1.16,1.16,0,0,0,.5.7c.2.2.4.3.6.5a1.76,1.76,0,0,1,.4.5c.1.2,0,.4-.2.6a5.07,5.07,0,0,1-1.1,1.1c-.6.6-1,.9-1.1,1s-.1.4.1.9a1,1,0,0,1-.3,1.1,9.67,9.67,0,0,1-3.4.5,19,19,0,0,0-3.4.1c-.5.2-.9.3-1.4.5a7.37,7.37,0,0,1-1.4.4,10.33,10.33,0,0,0-1.4.1c-.8,0-1.4.1-1.8.1a11.39,11.39,0,0,0-2.9.6,6.71,6.71,0,0,1-2.8.6,3.42,3.42,0,0,1-1.7.3,5,5,0,0,1-1.5-.1,7.5,7.5,0,0,1-1.2-.1,2.35,2.35,0,0,1-1.2-.4c-.3.1-.8.2-1.5.4a4.28,4.28,0,0,1-1.2.2c-.9,0-1.9,0-2.9-.1a15.06,15.06,0,0,0-3,.1,3.22,3.22,0,0,0-.6.2c0,.1-.3.1-.6,0v-.5a9.42,9.42,0,0,1-1,.4c-.1,0-.2,0-.2-.1s-.1-.1-.2-.2a8,8,0,0,0-1.1-.1,4.57,4.57,0,0,0-1.5.1L28,89l-.2.2a4.48,4.48,0,0,1-1.6.3l-11.5-.4c-.1.1-.3.1-.8.1s-.9-.1-1.3-.1-.9-.1-1.3-.1A5.38,5.38,0,0,1,10.5,88.9ZM2,17.5a6.73,6.73,0,0,0,1.1-.7,1.5,1.5,0,0,0,.4-1.1c-.3.2-.6.5-.8.6a3.49,3.49,0,0,0-.6.9v.3Zm1.9-2.9a.37.37,0,0,1-.1.3.37.37,0,0,0-.1.3,6.37,6.37,0,0,1,.7-.2.68.68,0,0,0,.6-.4,3.63,3.63,0,0,1,.7-.9l1.1-1.1,1.1-1.1c.3-.3.4-.5.4-.7a4.35,4.35,0,0,1-.6.7c-.4.4-.7.5-1,.2a19.2,19.2,0,0,1-1.4,1.5Zm.2.9c-.2,0-.2.1-.2.2s.1.2.2.2.2,0,.2-.1S4.2,15.5,4.1,15.5Z"/></g></svg>
